<?xml version="1.0" encoding="utf-8"?>
<!-- Generator: Adobe Illustrator 27.5.0, SVG Export Plug-In . SVG Version: 6.00 Build 0)  -->
<svg version="1.1" xmlns="http://www.w3.org/2000/svg" xmlns:xlink="http://www.w3.org/1999/xlink" x="0px" y="0px"
	 viewBox="0 0 500 500" style="enable-background:new 0 0 500 500;" xml:space="preserve">
<g id="BACKGROUND">
	<rect style="fill:#FFFFFF;" width="500" height="500"/>
</g>
<g id="OBJECTS">
	<path style="opacity:0.46;fill:#7B92DB;" d="M68.975,400.565c0,0-34.921-5.698-30.669-48.217
		c4.252-42.52,16.681-83.697-0.359-108.706c-25.053-36.769-7.27-100.448,49.811-93.285c57.081,7.163,80.908,20.899,112.792-24.113
		c16.615-23.457,41.976-43.982,80.119-29.321s37.166,51.607,57.691,58.057c20.525,6.45,86.85-26.458,119.172,16.873
		s-2.921,77.799-6.619,96.513c-3.698,18.714,12.114,43.986,20.151,77.99c8.037,34.004-9.949,54.208-9.949,54.208H68.975z"/>
	<g>
		<g>
			<path style="fill:#EC9263;" d="M354.828,221.109c0,0-11.633,25.165-15.59,34.685c-4.126,9.926-20.026,38.186-20.026,38.186
				s3.917,8.304,10.544,10.147c0,0,19.248-29.216,21.839-33.521c8.108-13.47,16.831-33.066,16.831-33.066
				S357.336,233.588,354.828,221.109z"/>
			<path style="fill:#EC9263;" d="M321.338,291.654c0,0-6.026,3.585-8.007,4.783c-1.981,1.198-2.187,3.306-2.187,3.306
				s-3.495,4.685-4.616,7.376c-1.12,2.691-1.974,3.183-1.602,4.617c0.372,1.434,1.348,1.156,3.507-1.509
				c2.159-2.665,3.466-3.676,3.466-3.676s-0.508,2.596-1.843,5.014c-1.335,2.417-1.974,3.183-2.732,4.529s-0.692,2.842,0.682,2.96
				c1.375,0.117,3.921-0.332,3.921-0.332s4.257-1.255,6.868-5.6c0,0-2.304,4.681-2.851,5.507c-0.547,0.827,0.496,2.044,1.502,1.522
				c1.006-0.523,7.208-5.945,11.063-12.768c3.854-6.824,2.923-5.802,2.923-5.802L321.338,291.654z"/>
		</g>
		<g>
			<path style="fill:#FFD3B5;" d="M361.13,246.22c0,0,20.605,18.002,24.671,20.384c4.066,2.382,22.963,19.831,22.963,19.831
				l-3.201,8.149c0,0-24.323-14.859-34.816-23.219c-8.023-6.392-18.052-12.89-18.052-12.89S359.218,255.943,361.13,246.22z"/>
			<path style="fill:#FFD3B5;" d="M407.321,286.408c0,0,6.49-1.553,8.41-1.401c1.919,0.152,2.859,1.642,2.859,1.642
				s4.346,2.18,6.183,3.763c1.837,1.583,2.655,1.63,2.913,2.835c0.259,1.205-0.571,1.362-3.17,0.186
				c-2.599-1.176-3.948-1.44-3.948-1.44s1.346,1.741,3.24,3.04c1.894,1.299,2.655,1.63,3.721,2.349
				c1.066,0.718,1.575,1.855,0.597,2.455c-0.978,0.6-3.039,1.216-3.039,1.216s-3.633,0.655-7.195-1.602c0,0,3.459,2.62,4.174,3.031
				c0.715,0.41,0.394,1.705-0.549,1.691c-0.943-0.013-7.296-3.663-12.707-7.299c-5.411-3.636-7.976-5.22-7.976-5.22L407.321,286.408
				z"/>
		</g>
		<g>
			<path style="fill:#BD5A30;" d="M215.232,230.391c0,0,21.791,12.238,25.165,13.769c4.277,1.94,8.291,4.549,12.623,6.406
				c4.332,1.856,23.681,13.448,23.681,13.448l-2.159,8.485c0,0-27.338-12.404-37.239-15.086c-9.901-2.682-26.403-8.045-26.403-8.045
				S215.322,241.942,215.232,230.391z"/>
			<path style="fill:#BD5A30;" d="M276.701,264.013c0,0,6.235-2.379,8.158-2.476s3.047,1.259,3.047,1.259s4.591,1.6,6.617,2.932
				c2.026,1.333,2.843,1.274,3.255,2.435c0.412,1.161-0.39,1.424-3.119,0.594c-2.729-0.83-4.101-0.918-4.101-0.918
				s1.56,1.553,3.606,2.596c2.046,1.044,2.843,1.274,3.993,1.848c1.15,0.574,1.801,1.636,0.909,2.358
				c-0.893,0.721-2.857,1.598-2.857,1.598s-3.518,1.119-7.342-0.66c0,0,3.768,2.152,4.53,2.467c0.762,0.315,0.611,1.64-0.326,1.748
				c-0.937,0.108-7.544-1.789-13.379-4.695c-5.835-2.907-6.813-3.277-6.813-3.277L276.701,264.013z"/>
		</g>
		<g>
			<path style="fill:#FFD3B5;" d="M282.546,248.37c0,0-17.333,21.17-20.948,24.194c-3.615,3.024-19.355,23.365-19.355,23.365
				l4.508,7.505c0,0,21.521-18.688,30.482-28.673c6.852-7.634,17.683-16.754,17.683-16.754S289.953,255.006,282.546,248.37z"/>
			<path style="fill:#FFD3B5;" d="M243.265,295.374c0,0-6.656-0.485-8.525-0.025c-1.87,0.46-2.556,2.082-2.556,2.082
				s-3.937,2.853-5.494,4.712c-1.557,1.859-2.356,2.038-2.417,3.268c-0.061,1.231,0.783,1.252,3.158-0.328
				c2.375-1.58,3.664-2.059,3.664-2.059s-1.047,1.935-2.707,3.524s-2.356,2.038-3.293,2.919c-0.936,0.881-1.255,2.085-0.192,2.519
				c1.062,0.434,3.196,0.709,3.196,0.709s3.691,0.059,6.842-2.743c0,0-2.99,3.145-3.629,3.665s-0.113,1.746,0.815,1.581
				c0.928-0.166,6.609-4.793,11.361-9.255c4.752-4.462,5.684-4.188,5.684-4.188L243.265,295.374z"/>
		</g>
		<g>
			<path style="fill:#2E2453;" d="M227.086,325.569c0,0-4.655,44.344-2.065,74.996h53.101c0,0,0.183-34.483-4.134-78.087
				L227.086,325.569z"/>
			<g>
				<path style="fill:#423A6B;" d="M243.656,353.062c2.508-0.393,5.016-0.484,7.525-0.5c2.508,0.014,5.016,0.104,7.525,0.5
					c-2.508,0.396-5.016,0.486-7.525,0.5C248.672,353.545,246.164,353.455,243.656,353.062z"/>
			</g>
			<g>
				<path style="fill:#423A6B;" d="M251.234,400.565c-0.206-3.959-0.303-7.917-0.383-11.876c-0.082-3.959-0.075-7.917-0.117-11.876
					c0.039-3.958,0.035-7.917,0.115-11.876l0.139-5.938c0.083-1.979,0.132-3.959,0.245-5.938c0.113,1.979,0.162,3.959,0.245,5.938
					l0.139,5.938c0.08,3.959,0.076,7.917,0.115,11.876c-0.042,3.959-0.034,7.917-0.117,11.876
					C251.536,392.647,251.44,396.606,251.234,400.565z"/>
			</g>
			<path style="fill:#EC9263;" d="M169.73,285.554c0,0-6.525-2.489-8.537-2.591c-2.012-0.102-3.189,1.318-3.189,1.318
				s-4.805,1.674-6.924,3.069c-2.12,1.395-2.975,1.333-3.406,2.548c-0.431,1.215,0.408,1.49,3.264,0.621
				c2.856-0.869,4.292-0.961,4.292-0.961s-1.632,1.625-3.773,2.717c-2.141,1.092-2.975,1.333-4.179,1.934
				c-1.203,0.601-1.885,1.712-0.951,2.467c0.934,0.755,2.99,1.673,2.99,1.673s3.682,1.171,7.683-0.69c0,0-3.943,2.252-4.741,2.581
				c-0.797,0.329-0.639,1.716,0.341,1.829s7.895-1.872,14.001-4.913c6.106-3.042,7.13-3.429,7.13-3.429L169.73,285.554z"/>
			<path style="fill:#EC9263;" d="M330.076,286.213c0,0,6.525-2.489,8.537-2.591c2.013-0.102,3.189,1.318,3.189,1.318
				s4.804,1.674,6.924,3.069c2.12,1.395,2.975,1.333,3.406,2.548c0.431,1.215-0.409,1.49-3.264,0.621
				c-2.856-0.869-4.292-0.961-4.292-0.961s1.632,1.625,3.773,2.717c2.141,1.092,2.975,1.333,4.178,1.934
				c1.204,0.601,1.885,1.712,0.951,2.467c-0.934,0.755-2.99,1.673-2.99,1.673s-3.682,1.171-7.683-0.69c0,0,3.944,2.252,4.741,2.581
				c0.797,0.329,0.639,1.716-0.341,1.829c-0.98,0.113-7.895-1.872-14.001-4.913c-6.106-3.042-7.13-3.429-7.13-3.429L330.076,286.213
				z"/>
			<path style="fill:#FCF9EB;" d="M330.343,283.555c0,0-33.674-15.326-44.035-21.154c-10.361-5.828-25.301-12.304-25.301-12.304
				s1.662,25.401,2.449,38.639c0.932,15.669,0.497,37.906,0.497,37.906c1.132,26.213,19.725,26.42,19.725,26.42s0.04-1.079,0-8.634
				c-0.04-7.555-8.811-44.035-7.299-51.59c1.511-7.555,2.088-12.736,2.088-12.736s14.317,5.612,20.793,7.576
				c6.476,1.964,29.141,8.613,29.141,8.613C332.286,291.542,330.343,283.555,330.343,283.555z"/>
			<path style="fill:#FCF9EB;" d="M234.626,280.152c-2.007-20.722-1.015-28.015-1.015-28.015s-11.009,4.702-21.37,10.53
				c-10.361,5.828-44.035,21.154-44.035,21.154s-1.943,7.987,1.943,12.736c0,0,22.665-6.649,29.141-8.613s20.793-7.576,20.793-7.576
				s0.577,5.181,2.088,12.736c1.511,7.555-7.26,44.035-7.3,51.59c-0.04,7.555,0,8.634,0,8.634s18.869-0.197,19.756-26.975
				c0.068-2.048,0.194-3.933,0.36-5.7C235.452,311.967,236.051,294.866,234.626,280.152z"/>
			<g>
				<path style="fill:#DDD8C3;" d="M220.082,280.368c-0.394-1.289-0.483-2.583-0.5-3.877c0.015-1.293,0.103-2.588,0.5-3.877
					c0.396,1.295,0.485,2.586,0.5,3.877C220.564,277.782,220.476,279.073,220.082,280.368z"/>
			</g>
			<g>
				<path style="fill:#DDD8C3;" d="M278.467,280.101c-0.265-1.277-0.38-2.487-0.46-3.724c-0.025-0.617-0.057-1.234-0.04-1.859
					c0.01-0.625,0.038-1.254,0.157-1.904c0.572,1.183,0.793,2.443,0.88,3.707c0.025,0.634,0.025,1.271-0.057,1.906
					C278.869,278.861,278.743,279.499,278.467,280.101z"/>
			</g>
		</g>
		<g>
			<path style="fill:#FFD3B5;" d="M170.815,252.004c0,0,7.021-2.678,9.187-2.788c2.166-0.109,3.431,1.418,3.431,1.418
				s5.17,1.802,7.451,3.302c2.281,1.501,3.201,1.435,3.665,2.742c0.464,1.308-0.44,1.604-3.513,0.669
				c-3.073-0.935-4.618-1.034-4.618-1.034s1.756,1.748,4.061,2.924c2.304,1.175,3.201,1.435,4.496,2.081
				c1.295,0.647,2.028,1.842,1.023,2.655c-1.005,0.812-3.217,1.8-3.217,1.8s-3.962,1.26-8.268-0.743c0,0,4.244,2.423,5.102,2.778
				s0.688,1.846-0.367,1.969c-1.055,0.122-8.68-3.029-15.251-6.302c-6.571-3.273-7.487-2.675-7.487-2.675L170.815,252.004z"/>
			<path style="fill:#73889A;" d="M163.132,241.781c-5.094-1.004-54.301-17.475-54.301-17.475
				c6.962,7.116,10.52,28.465,10.52,28.465s33.762,7.75,38.521,9.592c9.592,3.713,12.686,0,12.686,0l3.094-11.798
				C173.652,250.565,172.414,243.609,163.132,241.781z"/>
		</g>
		<g>
			<path style="fill:#403C3F;" d="M122.909,318.52c-2.939,2.32-13.304,6.497-20.73,7.426c-7.426,0.928-24.598-1.083-28.62-2.939
				c-4.022-1.856-5.879-0.774-5.879-0.774v-2.018l-7.271-0.097l-5.157,12.686c-4.951,27.743-3.813,67.76-3.813,67.76h71.47
				c0,0-1.444-36.304-1.238-50.124C121.878,336.621,122.909,318.52,122.909,318.52z"/>
			<path style="fill:#FFD3B5;" d="M54.071,180.762c0,0,3.799,17.095,6.648,21.843c2.849,4.749,10.21,14.43,22.277,10.872
				c12.067-3.558,16.089-11.139,15.006-23.515c-1.083-12.376-3.249-18.564-3.249-18.564s-11.139-4.332-16.553-12.222
				c0,0-4.177,5.415-6.962,5.724C71.238,164.9,65.059,175.739,54.071,180.762z"/>
			<path style="fill:#FFD3B5;" d="M60.718,202.605c-1.575-2.625-3.44-9.022-4.793-14.219c-3.147-0.927-5.886,2.337-4.291,7.609
				c2.011,6.652,7.116,8.199,7.116,8.199c1.215,0,2.07-0.204,2.674-0.464C61.166,203.334,60.929,202.955,60.718,202.605z"/>
			<path style="fill:#FFD3B5;" d="M103.886,183.151c-0.495-5.986-4.907-7.867-7.457-4.859c0.561,2.948,1.149,6.828,1.573,11.669
				c0.121,1.384,0.168,2.699,0.157,3.964c0.576-0.048,1.274-0.201,2.12-0.535C100.279,193.391,104.459,190.077,103.886,183.151z"/>
			<path style="fill:#C18B57;" d="M54.071,180.762c10.988-5.023,17.167-15.862,17.167-15.862c2.785-0.309,6.962-5.724,6.962-5.724
				c4.641-8.973,5.415-19.647,0.464-18.874c-4.951,0.774-5.724,8.199-17.946,12.995c-12.222,4.796-15.78,13.15-13.769,20.885
				c2.011,7.735,5.748,14.879,5.748,14.879c1.107-1.605,3.228-0.676,3.228-0.676C54.831,184.182,54.071,180.762,54.071,180.762z"/>
			<g>
				<path style="fill:#C18B57;" d="M76.948,160.663c0.009-0.01,0.018-0.02,0.027-0.03C76.966,160.643,76.957,160.653,76.948,160.663
					z"/>
				<path style="fill:#C18B57;" d="M78.2,159.176c0,0-0.018,0.022-0.031,0.04C78.189,159.19,78.2,159.176,78.2,159.176z"/>
				<path style="fill:#C18B57;" d="M96.429,162.425c-1.963-4.824-9.279-10.156-15.253-11.008c-0.652,2.523-1.657,5.209-2.976,7.759
					c5.415,7.89,16.553,12.222,16.553,12.222s0.803,2.308,1.676,6.895c0,0,2.083-2.299,3.756-1.263
					C100.184,177.03,98.569,167.685,96.429,162.425z"/>
				<path style="fill:#C18B57;" d="M78.095,159.309c-0.004,0.005-0.008,0.01-0.012,0.015
					C78.087,159.318,78.09,159.315,78.095,159.309z"/>
			</g>
			<path style="fill:#181324;" d="M69.312,190.597c0.444,1.509,0.073,2.948-0.828,3.213c-0.902,0.265-1.993-0.743-2.437-2.252
				c-0.444-1.509-0.073-2.948,0.828-3.213C67.777,188.079,68.868,189.088,69.312,190.597z"/>
			<path style="fill:#181324;" d="M88.599,184.923c0.444,1.509,0.073,2.948-0.829,3.213c-0.902,0.265-1.993-0.743-2.436-2.252
				c-0.444-1.509-0.073-2.948,0.828-3.213C87.064,182.405,88.155,183.414,88.599,184.923z"/>
			<path style="fill:none;stroke:#D6A27F;stroke-linecap:round;stroke-linejoin:round;stroke-miterlimit:10;" d="M75.415,183.696
				c0.464,0.077,4.409,6.807,5.724,8.509c1.315,1.702-0.077,4.332-1.47,4.873"/>
			<path style="fill:none;stroke:#D6A27F;stroke-linecap:round;stroke-linejoin:round;stroke-miterlimit:10;" d="M74.642,202.261
				c0.309,0.077,3.249,3.713,8.818,1.083"/>
			<path style="fill:none;stroke:#C18B57;stroke-linecap:round;stroke-linejoin:round;stroke-miterlimit:10;" d="M61.801,184.625
				c0,0,0.077-3.713,4.022-4.641"/>
			<path style="fill:none;stroke:#C18B57;stroke-linecap:round;stroke-linejoin:round;stroke-miterlimit:10;" d="M84.929,175.807
				c0.464,0.155,3.945-0.696,5.724,1.934"/>
			<path style="fill:#73889A;" d="M76.121,214.246c0,0-5.347,0.314-5.192,6.812c0,0-2.475,2.321-0.774,5.879
				c0,0-12.221,6.497-16.708,16.863s-10.21,53.527-8.973,62.191c0,0-2.475,4.022-1.238,6.033c1.238,2.011,2.011,2.166,2.011,2.166
				s0.309,4.177,3.404,4.486c3.094,0.309,19.028,0,19.028,0v3.558c0,0,1.856-1.083,5.879,0.774
				c4.022,1.856,21.194,3.868,28.62,2.939c7.426-0.928,17.791-5.105,20.73-7.426c0,0,2.321,0.155,0.928-7.426
				c-1.392-7.581-2.63-19.029-2.321-27.847c0.309-8.818-2.166-30.477-2.166-30.477s-3.558-21.349-10.52-28.465l-8.647-2.63
				c0,0,1.409-2.475,0-4.332c-1.409-1.857-1.409-1.857-1.409-1.857s-0.956-5.227-9.373-4.702l-3.158,5.63L76.121,214.246z"/>
			<path style="fill:#FFD3B5;" d="M76.121,214.246l1.821,5.935c0,0,3.713,8.354,10.726,13.82c0,0,3.919-6.085,2.475-18.049
				l-1.741-5.166C89.402,210.786,84.922,214.189,76.121,214.246z"/>
			<g>
				<path style="fill:#546677;" d="M67.68,318.675c0.607-0.161,1.196-0.408,1.697-0.768c0.499-0.346,0.901-0.879,0.866-1.468
					c-0.032-0.563-0.317-1.175-0.533-1.742c-0.237-0.561-0.524-1.148-0.867-1.583l-0.332-0.421l0.577,0.012
					c0.287,0.006,0.735-0.368,0.984-0.761c0.277-0.406,0.492-0.871,0.666-1.352c0.355-0.954,0.576-1.991,0.801-3.007
					c0.108-0.51,0.181-0.994,0.166-1.486c-0.008-0.494-0.079-1.018-0.121-1.543c-0.098-1.051-0.187-2.111-0.255-3.168
					c-0.132-2.119-0.241-4.221-0.264-6.352c-0.055-2.137,0.129-4.256,0.311-6.37c0.434-4.22,1.052-8.411,1.882-12.559
					c0.8-4.153,1.745-8.276,2.863-12.352c-0.776,4.154-1.513,8.309-2.176,12.473c-0.622,4.169-1.262,8.336-1.619,12.525
					c-0.148,2.093-0.303,4.19-0.294,6.277c-0.004,2.091,0.08,4.209,0.184,6.306c0.054,1.051,0.129,2.097,0.214,3.148
					c0.042,0.527,0.082,1.055,0.075,1.617c-0.004,0.565-0.113,1.13-0.244,1.646c-0.27,1.034-0.527,2.062-0.945,3.075
					c-0.205,0.502-0.452,0.997-0.788,1.452c-0.174,0.223-0.36,0.444-0.606,0.622c-0.254,0.171-0.506,0.344-0.94,0.301l0.244-0.408
					c0.406,0.58,0.625,1.161,0.846,1.769c0.186,0.616,0.435,1.186,0.443,1.885c-0.007,0.705-0.514,1.271-1.051,1.594
					C68.911,318.367,68.299,318.563,67.68,318.675z"/>
			</g>
			<g>
				<path style="fill:#546677;" d="M91.463,305.061c1.158-0.836,2.306-1.674,3.407-2.576c1.123-0.869,2.221-1.769,3.283-2.708
					c2.127-1.872,4.19-3.81,6.095-5.893c1.898-2.09,3.622-4.32,5.177-6.674c0.692-1.223,1.468-2.413,2.004-3.721
					c0.689-1.248,1.051-2.618,1.579-3.953c-0.308,1.387-0.583,2.81-1.127,4.142c-0.455,1.372-1.166,2.626-1.796,3.926
					c-1.434,2.503-3.182,4.811-5.1,6.954c-1.96,2.106-4.077,4.058-6.346,5.811C96.371,302.119,94.003,303.746,91.463,305.061z"/>
			</g>
			<g>
				<path style="fill:#546677;" d="M101.096,303.05l2.625-1.784c0.859-0.596,1.721-1.178,2.529-1.82
					c0.814-0.631,1.617-1.28,2.336-2.009c0.719-0.732,1.379-1.512,1.947-2.432c-0.176,1.069-0.705,2.07-1.358,2.943
					c-0.648,0.89-1.472,1.614-2.316,2.29c-0.861,0.658-1.781,1.225-2.746,1.699C103.15,302.411,102.15,302.816,101.096,303.05z"/>
			</g>
			<g>
				<path style="fill:#546677;" d="M70.155,226.936c1.277,1.44,2.705,2.706,4.159,3.922c1.47,1.198,2.994,2.325,4.587,3.348
					c0.805,0.496,1.593,1.026,2.431,1.47l1.236,0.705l1.267,0.652c1.69,0.874,3.433,1.644,5.194,2.435
					c-0.938-0.212-1.873-0.455-2.801-0.726c-0.908-0.322-1.842-0.596-2.721-1.001c-1.804-0.713-3.497-1.677-5.148-2.695
					c-1.623-1.065-3.165-2.26-4.562-3.607C72.399,230.097,71.122,228.609,70.155,226.936z"/>
			</g>
			<g>
				<path style="fill:#546677;" d="M100.184,221.676c-0.351,2.179-0.994,4.268-1.704,6.331c-0.74,2.052-1.55,4.081-2.645,5.994
					c0.354-2.196,0.994-4.275,1.704-6.331C98.279,225.625,99.086,223.605,100.184,221.676z"/>
			</g>
			<g>
				<path style="fill:#546677;" d="M70.929,221.057c1.538,1.816,3.016,3.6,4.602,5.296c0.776,0.862,1.596,1.681,2.423,2.498
					c0.822,0.828,1.703,1.584,2.566,2.416c-1.089-0.482-2.135-1.087-3.075-1.825c-0.957-0.719-1.836-1.535-2.648-2.411
					c-0.803-0.884-1.556-1.814-2.208-2.813C71.934,223.225,71.347,222.179,70.929,221.057z"/>
			</g>
			<g>
				<path style="fill:#546677;" d="M98.775,215.488c0.117,1.892-0.192,3.751-0.659,5.559c-0.495,1.798-1.183,3.571-2.281,5.116
					c0.366-1.854,0.855-3.599,1.316-5.376C97.642,219.021,98.113,217.256,98.775,215.488z"/>
			</g>
			<g>
				<path style="fill:#546677;" d="M48.342,307.227c1.218-0.345,2.416-0.403,3.614-0.411c1.2,0.021,2.381,0.103,3.606,0.411
					c-1.177,0.484-2.406,0.581-3.613,0.589C50.739,307.79,49.529,307.67,48.342,307.227z"/>
			</g>
			<path style="fill:#73889A;" d="M51.544,318.79c0,0-0.418,4.32,0.407,5.145c0.825,0.825,15.728-0.722,15.728-0.722v-4.538
				L51.544,318.79z"/>
			<path style="fill:#FFD3B5;" d="M55.562,324.148l-0.31,8.657c0,0,7.58-2.217,13.665-7.941l-1.238-1.65L55.562,324.148z"/>
			<g>
				<path style="fill:#262024;" d="M63.604,328.9l-0.908,17.913c-0.287,5.97-0.604,11.937-0.817,17.909
					c-0.3,5.968-0.463,11.941-0.658,17.914c-0.089,2.986-0.178,5.973-0.22,8.961c-0.108,2.988-0.093,5.976-0.18,8.968
					c-0.298-5.975-0.395-11.959-0.369-17.942c0.036-5.983,0.208-11.964,0.429-17.942c0.297-5.975,0.6-11.95,1.051-17.915
					C62.384,340.801,62.898,334.841,63.604,328.9z"/>
			</g>
			<g>
				<path style="fill:#262024;" d="M91.463,400.565c-0.356-5.592-0.477-11.197-0.449-16.803c0.041-5.606,0.269-11.215,0.804-16.812
					c0.624-5.577,1.637-11.219,4.072-16.365c1.217-2.578,2.923-4.817,3.938-7.402c1.118-2.546,1.764-5.284,2.408-8.006
					c-0.423,2.766-0.971,5.533-1.952,8.188c-0.949,2.684-2.609,5.017-3.695,7.544c-1.116,2.527-1.898,5.198-2.53,7.906
					c-0.591,2.705-0.96,5.467-1.246,8.239c-0.613,5.544-0.827,11.136-1.032,16.723c-0.1,2.795-0.165,5.592-0.201,8.39
					C91.507,394.965,91.496,397.763,91.463,400.565z"/>
			</g>
			<g>
				<path style="fill:#262024;" d="M102.179,325.946c0.404,0.743,0.502,1.489,0.528,2.237c-0.005,0.748-0.084,1.497-0.471,2.249
					c-0.406-0.743-0.504-1.489-0.528-2.237C101.715,327.448,101.794,326.699,102.179,325.946z"/>
			</g>
			<g>
				<path style="fill:#546677;" d="M119.783,256.78l-1.927-9.633c-0.651-3.2-1.406-6.352-2.249-9.545
					c1.583,2.91,2.546,6.118,3.228,9.342C119.48,250.181,119.886,253.473,119.783,256.78z"/>
			</g>
			<g>
				<path style="fill:#546677;" d="M53.473,318.809c1.833-0.442,3.675-0.579,5.518-0.644c1.844-0.034,3.69,0.007,5.544,0.355
					c-1.833,0.444-3.675,0.581-5.518,0.644C57.172,319.195,55.326,319.155,53.473,318.809z"/>
			</g>
			<path style="fill:#E8B897;" d="M91.143,215.952l-1.741-5.166c0,0-4.48,3.404-13.281,3.46l1.821,5.935
				C77.942,220.181,85.421,219.298,91.143,215.952z"/>
		</g>
		<g>
			<path style="fill:#D3464E;" d="M160.322,216.571c0,0-13.572,4.426-17.079,5.822c-3.507,1.397-7.361,3.047-10.797,12.948
				c-3.436,9.901-5.774,13.146-5.774,13.146s8.114,3.15,18.015,5.625c0,0-6.394,17.946-8.044,27.434
				c-1.65,9.488-3.094,27.847-3.094,27.847s8.992,10.726,26.773,9.282c17.781-1.444,33.138-2.475,33.138-2.475
				s-5.477-14.852,0-37.954c5.476-23.102,5.683-32.797,5.683-32.797l11.757,3.919c0,0,5.157-8.045,4.332-18.977l-25.578-11.964
				l-5.569-2.939l-18.564-1.242L160.322,216.571z"/>
			<path style="fill:#BD5A30;" d="M162.943,164.662c0,0-4.332,17.32-1.856,26.415c2.475,9.095,9.592,11.905,14.852,12.202
				c5.26,0.297,10.829-0.818,15.161-7.067c4.332-6.25,8.045-22.958,8.045-22.958s-6.188-2.011-6.033-10.829
				c0,0-9.592,1.856-11.293-6.343c0,0-3.094,7.426-12.376,3.094C169.44,159.176,168.667,165.662,162.943,164.662z"/>
			<path style="fill:#BD5A30;" d="M161.938,169.352c-0.79-0.255-3.249-0.802-4.764,1.659c-1.822,2.961-3.352,11.016,2.049,14.089
				c0.386,0.22,0.761,0.33,1.124,0.363C160.165,179.947,161.132,173.576,161.938,169.352z"/>
			<path style="fill:#181324;" d="M185.863,179.367c-0.196,1.408,0.326,2.645,1.168,2.762c0.841,0.117,1.682-0.929,1.879-2.337
				c0.196-1.408-0.327-2.645-1.168-2.762C186.9,176.912,186.059,177.958,185.863,179.367z"/>
			<path style="fill:#181324;" d="M167.867,176.858c-0.196,1.408,0.326,2.645,1.168,2.762c0.841,0.117,1.682-0.929,1.879-2.337
				c0.196-1.408-0.326-2.645-1.168-2.762C168.904,174.403,168.063,175.449,167.867,176.858z"/>
			<path style="fill:none;stroke:#A04728;stroke-linecap:round;stroke-linejoin:round;stroke-miterlimit:10;" d="M179.49,174.009
				c-0.405,0.131-3.037,6.671-3.986,8.368c-0.949,1.696,0.645,3.862,1.962,4.161"/>
			<path style="fill:none;stroke:#A04728;stroke-linecap:round;stroke-linejoin:round;stroke-miterlimit:10;" d="M182.649,190.502
				c-0.266,0.11-2.411,3.751-7.739,2.14"/>
			<path style="fill:none;stroke:#652A20;stroke-linecap:round;stroke-linejoin:round;stroke-miterlimit:10;" d="M191.784,173.029
				c0,0-0.563-3.309-4.213-3.614"/>
			<path style="fill:none;stroke:#652A20;stroke-linecap:round;stroke-linejoin:round;stroke-miterlimit:10;" d="M171.822,167.209
				c-0.394,0.2-3.619-0.098-4.86,2.49"/>
			<path style="fill:#BD5A30;" d="M199.434,176.89c-0.394-0.066-0.786-0.064-1.172-0.004c-0.991,3.868-2.734,10.079-4.801,14.86
				c0.101,0.013,0.197,0.032,0.306,0.036c6.21,0.211,9.126-7.452,9.125-10.928C202.89,177.378,199.434,176.89,199.434,176.89z"/>
			<g>
				<path style="fill:#652A20;" d="M206.775,160.053c2.888-2.269,4.744-5.569,2.269-9.488c-2.475-3.919-8.251-2.063-8.251-2.063
					s-1.031-4.332-5.363-5.982c-4.332-1.65-7.632,1.031-7.632,1.031s-0.619-2.682-6.807-4.744c-6.188-2.063-10.314,3.3-10.314,3.3
					s-5.157-3.507-8.74,0c-3.583,3.507-1.616,8.457-1.616,8.457s-4.89,0.853-4.836,6.394c-0.546,9.901,3.226,12.157,3.226,12.157
					l3.103,0.892c0.589-3.187,1.128-5.345,1.128-5.345c5.724,1,6.497-5.486,6.497-5.486c9.282,4.332,12.376-3.094,12.376-3.094
					c1.702,8.199,11.293,6.343,11.293,6.343c-0.155,8.818,6.034,10.829,6.034,10.829s-0.356,1.6-0.974,3.988
					c0.031-0.118,0.063-0.241,0.092-0.356c0.387-0.06,0.778-0.062,1.172,0.004c0,0,1.229,0.179,2.222,1.059l1.235-3.045
					c0,0,6.566-1.65,7.307-7.219C210.94,162.115,206.775,160.053,206.775,160.053z"/>
			</g>
			<g>
				<path style="fill:#C3BCB2;" d="M193.461,316.2c-0.16-0.613-0.341-1.195-0.534-1.763
					C193.237,315.588,193.461,316.2,193.461,316.2z"/>
				<path style="fill:#C3BCB2;" d="M160.322,318.675c-11.126,0.904-18.81-2.957-23.004-5.974l-10.646,5.82l-2.2,10.379
					c0,0-4.951,30.823-3.3,71.665h81.271c0,0-1.98-57.447-8.983-84.365C193.461,316.2,178.104,317.231,160.322,318.675z"/>
			</g>
			<path style="fill:#BD5A30;" d="M181.803,202.843c-1.945,0.46-3.926,0.546-5.865,0.436c-2.031-0.115-4.337-0.611-6.548-1.692l0,0
				v9.161c0,0-0.156,1.378-3.869,3.497c0,0,2.269,12.226,7.632,11.917c5.363-0.309,9.076-5.157,10.932-10.674
				c0,0-2.063-2.011-2.269-3.661C181.644,210.444,181.76,204.683,181.803,202.843z"/>
			<path style="fill:#FFFFFF;" d="M165.521,214.246l-5.199,2.325c0,0,0.248,14.697,3.549,16.631c3.3,1.934,8.663-0.748,9.282-7.039
				C167.79,226.472,165.521,214.246,165.521,214.246z"/>
			<path style="fill:#FFFFFF;" d="M184.086,215.488c-1.856,5.518-5.569,10.365-10.932,10.674c0.825,7.116,5.776,8.148,8.663,7.039
				c2.888-1.109,7.838-14.774,7.838-14.774L184.086,215.488z"/>
			<path style="fill:#BD5A30;" d="M129.384,249.481c0,0-8.211,23.763-8.211,26.909c0,3.146,5.5,42.131,5.5,42.131
				s-1.993,4.721-2.2,10.379c0,0,7.632-2.902,13.201-10.379l-2.225-7.288c0,0,1.606-23.292,1.194-29.686
				c-0.413-6.394,8.044-27.434,8.044-27.434L129.384,249.481z"/>
			<g>
				<path style="fill:#A3947F;" d="M168.822,332.805c-0.54,2.762-1.323,5.478-2.329,8.121c-0.505,1.322-1.114,2.608-1.839,3.838
					c-0.736,1.217-1.573,2.427-2.804,3.305l0.161-0.263c-0.402,4.361-0.672,8.761-0.812,13.154
					c-0.126,4.396-0.217,8.794-0.224,13.195c0.016,2.2,0.016,4.4,0.074,6.6c0.01,2.201,0.063,4.401,0.12,6.602l0.211,6.602
					l0.261,6.605c-0.468-4.383-0.867-8.776-1.107-13.18c-0.283-4.402-0.426-8.812-0.471-13.224
					c-0.038-4.412-0.022-8.827,0.188-13.236c0.216-4.41,0.438-8.815,1.019-13.212l0.022-0.171l0.139-0.092
					c1.103-0.73,1.956-1.855,2.699-3.008c0.743-1.165,1.369-2.416,1.927-3.697C167.196,338.19,168.071,335.513,168.822,332.805z"/>
			</g>
			<g>
				<path style="fill:#A3947F;" d="M170.997,317.832c0.394,1.057,0.483,2.115,0.5,3.172c-0.015,1.057-0.103,2.115-0.5,3.172
					c-0.396-1.057-0.485-2.115-0.5-3.172C170.514,319.947,170.603,318.89,170.997,317.832z"/>
			</g>
			<path style="fill:#A3947F;" d="M177.072,320.48c0,0.484-0.393,0.877-0.877,0.877c-0.484,0-0.877-0.392-0.877-0.877
				c0-0.484,0.393-0.877,0.877-0.877C176.68,319.603,177.072,319.996,177.072,320.48z"/>
			<g>
				<path style="fill:#B23945;" d="M144.688,254.112c0.213-1.79,0.714-3.478,1.282-5.142c0.598-1.654,1.266-3.283,2.225-4.81
					c-0.21,1.79-0.711,3.479-1.282,5.142C146.312,250.955,145.644,252.585,144.688,254.112z"/>
			</g>
			<g>
				<path style="fill:#B23945;" d="M160.322,297.945c1.078-0.281,2.15-0.558,3.206-0.895c1.062-0.305,2.118-0.629,3.155-1.004
					c2.073-0.741,4.139-1.502,6.096-2.484c1.961-0.964,3.869-2.042,5.6-3.371c0.451-0.31,0.831-0.702,1.252-1.05
					c0.204-0.182,0.418-0.355,0.614-0.544l0.548-0.607c0.358-0.41,0.8-0.766,1.087-1.235c0.314-0.45,0.641-0.897,0.979-1.345
					c-0.482,0.997-0.985,2.015-1.691,2.896l-0.512,0.676c-0.186,0.212-0.389,0.406-0.583,0.611
					c-0.402,0.393-0.768,0.835-1.204,1.192c-1.681,1.523-3.65,2.668-5.655,3.678c-2.024,0.986-4.146,1.74-6.307,2.316
					C164.746,297.349,162.55,297.799,160.322,297.945z"/>
			</g>
			<path style="fill:#9E4628;" d="M181.73,207.386c0.014-1.805,0.052-3.643,0.073-4.543c-1.945,0.46-3.926,0.546-5.865,0.436
				c-2.031-0.115-4.337-0.611-6.548-1.692v4.839C171.901,206.94,176.553,207.672,181.73,207.386z"/>
			<g>
				<path style="fill:#B23945;" d="M199.143,245.449c-0.394-1.169-0.483-2.338-0.5-3.507c0.015-1.169,0.103-2.338,0.5-3.507
					c0.396,1.169,0.485,2.338,0.5,3.507C199.626,243.111,199.538,244.28,199.143,245.449z"/>
			</g>
		</g>
		<g>
			<path style="fill:#3C2F6F;" d="M258.482,176.921c0,0-7.609-9.876-23.475-2.752c-15.866,7.123-28.564,30.382-12.501,74.201
				c0,0,0.53-3.454,9.16-2.59c8.63,0.863,25.899,0.216,25.899,0.216s5.09-4.101,5.891-8.85c0,0-0.71,5.181-2.869,8.85
				c0,0,8.816,0.216,12.071-0.648c3.255-0.863,6.493-15.168,7.356-31.76C280.878,196.996,274.294,172.604,258.482,176.921z"/>
			<path style="fill:#EC9263;" d="M227.345,206.709c0,0,1.995,16.995,5.612,23.96c4.317,8.311,15.758,11.441,24.176,5.828
				c8.419-5.612,10.793-26.689,10.793-26.689s-1.511-5.043-4.317-13.245c0,0,0,3.022,0.216,5.181c0,0-4.209-8.203-4.641-13.275
				c0,0-3.346,8.203-10.037,11.656c0,0,3.562-5.181,4.101-9.714C253.248,190.412,242.886,204.767,227.345,206.709z"/>
			<path style="fill:#181324;" d="M256.148,216.07c0.072,1.486,0.849,2.656,1.737,2.614c0.888-0.043,1.55-1.282,1.478-2.768
				c-0.072-1.486-0.849-2.656-1.737-2.614C256.738,213.344,256.077,214.583,256.148,216.07z"/>
			<path style="fill:#181324;" d="M237.156,216.983c0.071,1.486,0.849,2.656,1.737,2.614c0.888-0.043,1.55-1.282,1.478-2.768
				c-0.071-1.486-0.849-2.656-1.737-2.614C237.746,214.257,237.084,215.497,237.156,216.983z"/>
			<path style="fill:none;stroke:#D17A54;stroke-linecap:round;stroke-linejoin:round;stroke-miterlimit:10;" d="M248.555,211.797
				c-0.391,0.213-1.828,7.45-2.475,9.378c-0.647,1.928,1.413,3.846,2.825,3.898"/>
			<path style="fill:none;stroke:#D17A54;stroke-linecap:round;stroke-linejoin:round;stroke-miterlimit:10;" d="M255.005,228.145
				c-0.253,0.165-1.751,4.325-7.543,3.703"/>
			<path style="fill:none;stroke:#3C2F6F;stroke-linecap:round;stroke-linejoin:round;stroke-miterlimit:10;" d="M261.007,208.403
				c0,0-1.221-3.294-5.034-2.899"/>
			<path style="fill:none;stroke:#3C2F6F;stroke-linecap:round;stroke-linejoin:round;stroke-miterlimit:10;" d="M239.35,206.293
				c-0.367,0.282-3.741,0.602-4.514,3.504"/>
			<path style="fill:#EC9263;" d="M228.538,214.657L228.538,214.657c0,0-1.949-1.768-4.863-0.757
				c-2.914,1.012-0.423,14.101,7.991,13.708h0C230.318,223.792,229.267,218.805,228.538,214.657z"/>
			<path style="fill:#EC9263;" d="M271.49,213.9c-1.949-0.677-3.462-0.11-4.254,0.34c-0.66,3.582-1.847,8.762-3.78,13.365
				c0.015,0.001,0.027,0.003,0.043,0.004C271.913,228.001,274.404,214.912,271.49,213.9z"/>
			<path style="fill:#EC9263;" d="M254.958,237.703c-4.102,1.935-8.661,2.063-12.687,0.726l-0.029,0.002v8.861
				c0,0-0.651,11.387,5.393,12.277c6.044,0.891,7.184-7.096,7.37-11.198c0.185-4.101,0-10.67,0-10.67L254.958,237.703z"/>
			<path style="fill:#CB9A77;" d="M263.456,288.736c-1.574-13.167-2.449-38.639-2.449-38.639l-5.947-3.423
				c-0.013,0.593-0.03,1.165-0.054,1.696c-0.185,4.101-1.326,12.088-7.37,11.198c-6.044-0.89-5.393-12.277-5.393-12.277l-8.422,4.58
				c0,0-1.228,7.281,0.779,28.003c2.007,20.722,0.237,46.213,0.237,46.213s15.734,6.39,29.117,0.555
				C263.953,326.642,265.029,301.903,263.456,288.736z"/>
			<g>
				<path style="fill:#AA7959;" d="M243.909,287.678c1.131-0.075,2.253-0.017,3.368,0.093c1.117,0.105,2.223,0.287,3.322,0.518
					c1.094,0.25,2.185,0.528,3.242,0.93c1.055,0.393,2.099,0.863,3.019,1.529c-2.179-0.567-4.308-1.018-6.472-1.481
					C248.232,288.784,246.068,288.34,243.909,287.678z"/>
			</g>
			<path style="fill:#CE7852;" d="M255.079,241.946c-0.021-2.369-0.074-4.246-0.074-4.246l-0.047,0.003
				c-4.103,1.935-8.661,2.063-12.687,0.726l-0.028,0.002v3.789C244.856,242.777,249.735,243.384,255.079,241.946z"/>
		</g>
		<g>
			<path style="fill:#652A20;" d="M324.642,156.082c0,0-6.946-3.868-16.932-1.392c-9.986,2.475-15.865,10.268-15.865,22.151
				c0,11.884-3.404,32.956-4.951,41.603c-1.547,8.647,10.606,4.731,13.657,8.081c3.051,3.35,16.013,6.238,22.063,3.866
				c6.05-2.372,15.695-5.051,21.238-3.866c5.542,1.185,9.255-1.462,9.255-1.462s2.475-8.035-1.238-20.949
				c-3.713-12.914-3.403-21.001-4.022-32.892C347.229,159.331,336.4,151.596,324.642,156.082z"/>
			<path style="fill:#FFD3B5;" d="M300.552,183.631c0,0,1.906,16.24,5.363,22.896c4.126,7.942,15.058,10.932,23.102,5.569
				c8.045-5.363,10.314-25.503,10.314-25.503s-1.444-4.819-4.126-12.657c0,0,0,2.888,0.206,4.951c0,0-4.022-7.838-4.435-12.686
				c0,0-3.197,7.838-9.592,11.139c0,0,3.403-4.951,3.919-9.282C325.304,168.057,315.403,181.774,300.552,183.631z"/>
			<path style="fill:#FFD3B5;" d="M301.692,191.225L301.692,191.225c0,0-1.863-1.69-4.647-0.723
				c-2.785,0.967-0.404,13.475,7.636,13.099c0,0,0,0,0,0C303.393,199.954,302.388,195.189,301.692,191.225z"/>
			<path style="fill:#FFD3B5;" d="M342.736,190.502c-1.863-0.647-3.309-0.105-4.065,0.324c-0.63,3.423-1.764,8.373-3.612,12.771
				c0.015,0.001,0.026,0.003,0.041,0.004C343.14,203.977,345.52,191.469,342.736,190.502z"/>
			<path style="fill:#181324;" d="M328.076,192.575c0.068,1.42,0.811,2.538,1.66,2.498c0.848-0.041,1.481-1.225,1.413-2.645
				s-0.811-2.538-1.66-2.498C328.64,189.971,328.007,191.155,328.076,192.575z"/>
			<path style="fill:#181324;" d="M309.927,193.448c0.068,1.42,0.811,2.538,1.66,2.498c0.848-0.041,1.481-1.225,1.413-2.645
				c-0.068-1.42-0.811-2.538-1.66-2.498C310.491,190.843,309.859,192.028,309.927,193.448z"/>
			<path style="fill:none;stroke:#D6A27F;stroke-linecap:round;stroke-linejoin:round;stroke-miterlimit:10;" d="M320.819,188.492
				c-0.373,0.204-1.746,7.119-2.365,8.962c-0.618,1.843,1.35,3.676,2.7,3.725"/>
			<path style="fill:none;stroke:#D6A27F;stroke-linecap:round;stroke-linejoin:round;stroke-miterlimit:10;" d="M326.983,204.114
				c-0.241,0.158-1.673,4.133-7.208,3.539"/>
			<path style="fill:none;stroke:#652A20;stroke-linecap:round;stroke-miterlimit:10;" d="M332.718,185.249
				c0,0-1.167-3.147-4.81-2.77"/>
			<path style="fill:none;stroke:#652A20;stroke-linecap:round;stroke-miterlimit:10;" d="M312.024,183.233
				c-0.35,0.27-3.575,0.575-4.314,3.348"/>
			<path style="fill:#FFD3B5;" d="M325.447,213.878h-0.04c-3.573,1.252-7.395,1.18-10.799,0h-0.015c0,0,0.47,10.638,0,12.647
				c-0.47,2.01-3.564,3.866-3.564,3.866s2.768,12.053,8.913,11.39c6.145-0.663,8.479-6.629,9.065-13.547l-2.714-1.708
				L325.447,213.878z"/>
			<g>
				<path style="fill:#778893;" d="M317.423,323.625c-14.851,0.619-18.564-2.063-18.564-2.063s-5.776,10.314-1.857,79.002h63.325
					c0,0,2.475-35.891-10.726-83.952C349.601,316.612,332.274,323.007,317.423,323.625z"/>
				<g>
					<path style="fill:#576872;" d="M343.799,318.526c0.494,1.998,1.031,3.973,1.585,5.935c0.57,1.957,1.173,3.901,1.912,5.784
						c0.723,1.886,1.578,3.724,2.708,5.364c0.574,0.81,1.235,1.561,2.036,2.14c0.787,0.599,1.755,0.957,2.788,1.004
						c-1.024,0.183-2.113-0.086-3.049-0.589c-0.933-0.523-1.73-1.262-2.395-2.08c-1.333-1.647-2.261-3.548-3.02-5.477
						c-0.74-1.942-1.313-3.936-1.734-5.957C344.197,322.632,343.911,320.584,343.799,318.526z"/>
				</g>
				<g>
					<path style="fill:#576872;" d="M301.931,322.68c0.436,3.924,0.334,7.898-0.249,11.824c-0.324,1.956-0.754,3.918-1.561,5.768
						c-0.401,0.921-0.899,1.82-1.584,2.582c-0.686,0.741-1.619,1.351-2.624,1.371c0.965-0.252,1.72-0.894,2.243-1.679
						c0.544-0.773,0.919-1.66,1.239-2.56c0.622-1.813,1-3.722,1.3-5.638c0.312-1.917,0.517-3.858,0.714-5.803L301.931,322.68z"/>
				</g>
				<g>
					<path style="fill:#576872;" d="M317.422,323.625c0.598,1.813,0.893,3.66,1.116,5.514c0.192,1.858,0.31,3.724,0.122,5.625
						c-0.6-1.813-0.895-3.659-1.116-5.514C317.355,327.392,317.237,325.526,317.422,323.625z"/>
				</g>
				<g>
					<path style="fill:#576872;" d="M318.66,343.221c0.294-0.105,0.635-0.066,0.923,0.054l0.433,0.205
						c0.129,0.092,0.247,0.198,0.371,0.298l0.366,0.31l0.299,0.369c0.192,0.251,0.417,0.484,0.583,0.752
						c0.312,0.546,0.673,1.074,0.947,1.642l0.792,1.72c0.44,1.178,0.88,2.363,1.243,3.566c0.334,1.211,0.71,2.415,1.009,3.635
						c0.285,1.223,0.568,2.447,0.83,3.676c0.259,1.229,0.448,2.469,0.676,3.704c0.474,2.467,0.783,4.955,1.148,7.437
						c0.358,2.483,0.543,4.984,0.823,7.475c0.275,2.492,0.464,4.99,0.628,7.49c0.396,4.995,0.541,10.005,0.688,15.01
						c-0.278-2.491-0.491-4.984-0.738-7.475c-0.195-2.494-0.447-4.983-0.716-7.47c-0.479-4.978-1.004-9.951-1.674-14.901
						c-0.334-2.474-0.612-4.959-1.053-7.415c-0.212-1.229-0.386-2.467-0.628-3.69c-0.257-1.219-0.494-2.443-0.729-3.668
						c-0.252-1.22-0.581-2.421-0.867-3.634c-0.314-1.204-0.712-2.383-1.094-3.566l-0.676-1.735c-0.235-0.574-0.555-1.104-0.83-1.662
						c-0.147-0.273-0.349-0.506-0.522-0.763l-0.27-0.378l-0.332-0.318c-0.112-0.105-0.219-0.219-0.336-0.318l-0.399-0.229
						C319.286,343.206,318.962,343.141,318.66,343.221z"/>
				</g>
			</g>
			<g>
				<path style="fill:#FECB6C;" d="M340.731,231.259c-9.488-2.106-11.725-3.026-11.725-3.026
					c-0.586,6.918-2.921,12.884-9.065,13.547c-6.145,0.664-8.913-11.39-8.913-11.39s-4.115,0.91-14.233,5.412
					c-10.036,4.465-16.782,15.642-16.782,15.642s4.503,7.471,9.66,12.009l6.255-6.673c0,0-0.883,6.984,2.723,14.865
					c3.607,7.881,4.022,10.456,3.507,17.12c-0.516,6.665-3.094,19.802-3.3,32.797c0,0,3.713,2.681,18.564,2.063
					c14.852-0.619,32.178-7.013,32.178-7.013s-2.682-17.313-4.332-23.921c-1.65-6.608-4.538-12.534-2.682-20.194
					c1.856-7.66,3.094-13.196,3.3-18.988l6.807,4.965c0,0,6.394-2.275,8.663-11.982C361.358,246.493,350.22,233.365,340.731,231.259
					z"/>
				<g>
					<path style="fill:#D8A34E;" d="M308.526,230.484c1.222,3.148,2.199,6.476,4.188,9.176c0.981,1.336,2.142,2.546,3.559,3.336
						c0.702,0.399,1.453,0.702,2.237,0.885c0.39,0.101,0.796,0.106,1.193,0.166c0.399,0.079,0.797,0.036,1.195,0.01
						c1.593-0.085,3.119-0.743,4.386-1.752c1.283-0.999,2.325-2.318,3.182-3.743c0.848-1.435,1.504-2.993,1.988-4.605
						c0.511-1.606,0.822-3.281,0.921-4.984c0.202,3.419-0.65,6.881-2.238,9.967c-0.797,1.547-1.895,2.962-3.26,4.104
						c-1.368,1.131-3.103,1.898-4.914,2.011c-0.452,0.025-0.905,0.063-1.35-0.024c-0.444-0.069-0.898-0.085-1.333-0.201
						c-0.872-0.216-1.717-0.553-2.483-1.019c-1.538-0.927-2.779-2.252-3.715-3.719c-0.944-1.469-1.651-3.056-2.209-4.679
						c-0.268-0.816-0.499-1.642-0.705-2.471l-0.295-1.246C308.762,231.291,308.74,230.833,308.526,230.484z"/>
				</g>
				<g>
					<path style="fill:#D8A34E;" d="M282.546,248.37c1.516,2.303,2.979,4.575,4.56,6.771c0.771,1.111,1.602,2.175,2.432,3.244
						c0.839,1.065,1.721,2.091,2.616,3.147c-1.148-0.76-2.244-1.629-3.2-2.63c-0.971-0.987-1.859-2.055-2.662-3.181
						C284.705,253.463,283.355,251.018,282.546,248.37z"/>
				</g>
				<g>
					<path style="fill:#D8A34E;" d="M351.219,257.399c1.007-0.852,1.878-1.808,2.713-2.78c0.819-0.986,1.589-2.007,2.269-3.088
						c0.672-1.084,1.319-2.191,1.864-3.357c0.569-1.156,1.063-2.352,1.587-3.569c-0.072,0.655-0.182,1.308-0.309,1.96
						c-0.175,0.636-0.309,1.294-0.559,1.91c-0.415,1.268-1.053,2.451-1.742,3.594c-0.729,1.121-1.574,2.169-2.547,3.085
						C353.533,256.072,352.436,256.872,351.219,257.399z"/>
				</g>
				<g>
					<path style="fill:#D8A34E;" d="M311.028,277.833c3.223-0.777,6.589-0.839,9.885-0.494c1.65,0.182,3.29,0.483,4.887,0.942
						c1.608,0.416,3.146,1.077,4.617,1.821c-1.612-0.382-3.19-0.78-4.795-1.061c-1.599-0.296-3.202-0.548-4.818-0.709
						c-1.612-0.187-3.234-0.307-4.862-0.385C314.314,277.88,312.68,277.823,311.028,277.833z"/>
				</g>
				<g>
					<path style="fill:#D8A34E;" d="M295.928,256.78c-0.177-0.707-0.176-1.431-0.12-2.138c0.053-0.71,0.199-1.405,0.375-2.09
						c0.393-1.356,0.949-2.671,1.849-3.803c-0.07,0.723-0.22,1.402-0.376,2.076c-0.151,0.674-0.337,1.332-0.51,1.993
						C296.775,254.137,296.398,255.426,295.928,256.78z"/>
				</g>
			</g>
			<path style="fill:#E8B897;" d="M325.726,218.057l-0.279-4.179h-0.04c-3.573,1.252-7.395,1.18-10.799,0h-0.015
				c0,0,0.09,2.034,0.152,4.491C317.125,218.717,320.958,218.94,325.726,218.057z"/>
		</g>
		<g>
			<path style="fill:#403C3F;" d="M381.574,198.048c0,0-4.406-0.356-10.108,3.131c-8.977,5.491-16.638,19.93-16.638,19.93
				s1.786,12.796,12.512,15.68c0,0-5.705,34.031,0.861,61.877c0,0,23.892,10.52,61.846,2.063c6.601-1.65,6.601-6.394,11.139-9.076
				c0,0-1.031-5.159-2.063-15.678c-1.031-10.519-1.031-31.372-1.031-31.372s-0.206-15.657,1.857-23.495
				c2.063-7.838-3.404-20.833-17.688-21.555C407.976,198.831,381.574,198.048,381.574,198.048z"/>
			<path style="fill:#EC9263;" d="M391.164,139.219c0,0-16.399,38.533,8.354,46.03c24.753,7.497,29.084-14.161,34.035-26.537
				c4.951-12.376,3.404-30.012-10.21-34.963C409.729,118.798,395.591,123.876,391.164,139.219z"/>
			<path style="fill:#EC9263;" d="M437.89,160.37c-1.85-1.291-3.995-0.671-4.851-0.335c-1.593,4.189-3.202,9.202-5.526,13.755
				c0.365,0.571,0.982,0.964,1.947,1.092C436.256,175.779,441.181,162.667,437.89,160.37z"/>
			<path style="fill:#EC9263;" d="M388.127,148.348c0,0-2.08-2.47-4.904-1.846c-3.919,0.865-4.379,14.865,2.246,16.632
				c0.132,0.035,0.253,0.051,0.377,0.072C385.931,157.924,386.98,152.62,388.127,148.348z"/>
			<path style="fill:#181324;" d="M417.208,162.514c-0.573,1.62-0.252,3.211,0.716,3.553c0.968,0.342,2.217-0.694,2.789-2.314
				c0.572-1.62,0.252-3.211-0.716-3.553C419.03,159.857,417.781,160.894,417.208,162.514z"/>
			<path style="fill:#181324;" d="M396.503,155.198c-0.573,1.62-0.252,3.211,0.716,3.553c0.968,0.342,2.217-0.694,2.789-2.314
				c0.573-1.62,0.252-3.211-0.716-3.553C398.324,152.542,397.076,153.578,396.503,155.198z"/>
			<path style="fill:none;stroke:#D17A54;stroke-linecap:round;stroke-linejoin:round;stroke-miterlimit:10;" d="M410.955,154.63
				c-0.511,0.057-5.207,7.167-6.741,8.947c-1.534,1.779-0.169,4.729,1.319,5.401"/>
			<path style="fill:none;stroke:#D17A54;stroke-linecap:round;stroke-linejoin:round;stroke-miterlimit:10;" d="M410.714,174.925
				c-0.342,0.066-3.76,3.86-9.682,0.666"/>
			<path style="fill:none;stroke:#652A20;stroke-linecap:round;stroke-linejoin:round;stroke-miterlimit:10;" d="M425.75,156.438
				c0,0,0.133-4.055-4.116-5.297"/>
			<path style="fill:none;stroke:#652A20;stroke-linecap:round;stroke-linejoin:round;stroke-miterlimit:10;" d="M403.517,144.726
				c-0.515,0.142-4.262-0.99-6.357,1.775"/>
			<path style="fill:#EC9263;" d="M410.985,186.687l-0.015-0.008c-3.245,0.308-7.016-0.087-11.451-1.43
				c-1.837-0.557-3.443-1.288-4.85-2.158l0,0v9.469l-4.122,2.197c0,0,1.497,8.354,7.71,13.923c0,0,10.531-2.409,15.495-13.459
				l-3.037-2.011L410.985,186.687z"/>
			<path style="fill:#FECB6C;" d="M394.668,192.561c0,0-8.377-2.357-13.094,5.487c0,0,0.099,5.683,6.392,13.108
				c0,0,1.188-6.742,5.365-8.863C393.33,202.293,391.674,197.289,394.668,192.561z"/>
			<path style="fill:#FECB6C;" d="M410.714,193.211c0,0,2.727-1.764,4.738-0.65c2.011,1.114,4.796,2.042,6.807,6.993
				c0,0-4.177,13.638-12.531,15.25c0,0,2.036-4.945-3.855-9.865c0,0,4.474-2.6,7.878-9.717L410.714,193.211z"/>
			<g>
				<path style="fill:#1D1E1E;" d="M398.256,208.681c-0.2,2.108-0.392,4.145-0.542,6.205l-0.21,3.091
					c-0.073,1.035-0.123,2.073-0.255,3.132c-0.564-2.051-0.668-4.188-0.532-6.297c0.089-1.054,0.233-2.105,0.48-3.136
					C397.441,210.647,397.757,209.625,398.256,208.681z"/>
			</g>
			<g>
				<path style="fill:#FECB6C;" d="M356.428,218.958c0.798,1.258,1.648,2.46,2.502,3.646c0.871,1.174,1.766,2.323,2.741,3.396
					c0.973,1.074,2.023,2.064,3.143,2.981c1.153,0.87,2.377,1.644,3.734,2.278c-1.468-0.259-2.899-0.834-4.185-1.641
					c-1.27-0.829-2.408-1.842-3.434-2.948C358.941,224.409,357.346,221.802,356.428,218.958z"/>
			</g>
			<path style="fill:#403C3F;" d="M428.046,200.637c0.328,0.11,9.427,0.074,14.377,7.076c4.951,7.001,9.695,17.395,9.695,17.395
				s-9.901,6.52-19.596,9.202c0,0-5.757-9.908-8.87-17.946C418.908,204.114,428.046,200.637,428.046,200.637z"/>
			<g>
				<path style="fill:#FECB6C;" d="M430.813,231.259c1.716-0.668,3.402-1.372,5.085-2.074c1.678-0.714,3.343-1.448,4.984-2.231
					c1.652-0.76,3.267-1.594,4.874-2.448c1.612-0.849,3.176-1.781,4.773-2.706c-1.362,1.235-2.808,2.403-4.376,3.378
					c-1.55,1.005-3.175,1.893-4.845,2.68C437.964,229.414,434.455,230.658,430.813,231.259z"/>
			</g>
			<path style="fill:#2E2453;" d="M450.816,304.172c-0.348-6.742-9.631-12.518-9.631-12.518c-4.538,2.681-4.538,7.426-11.139,9.076
				c-37.954,8.457-61.846-2.063-61.846-2.063s-1.686,27.937-0.861,44.497c0.825,16.559-0.227,57.401-0.227,57.401h36.372
				c0,0,1.238-19.596,2.888-30.116l8.044,30.116h33.781c0,0,0.413-36.097,1.444-49.918
				C450.674,336.827,451.164,310.914,450.816,304.172z"/>
			<g>
				<path style="fill:#423A6B;" d="M388.38,303.205c0.135,1.271,0.216,2.542,0.337,3.812l0.277,3.809l0.563,7.604
					c0.211,2.524,0.38,5.073,0.913,7.498c0.289,1.211,0.697,2.4,1.296,3.494c0.582,1.098,1.34,2.138,2.391,2.868
					c-1.178-0.539-2.066-1.561-2.811-2.616c-0.714-1.092-1.224-2.304-1.618-3.544c-0.74-2.516-0.93-5.079-1.167-7.621
					c-0.189-2.549-0.314-5.099-0.332-7.651C388.203,308.307,388.219,305.755,388.38,303.205z"/>
			</g>
			<path style="fill:#EC9263;" d="M432.522,234.31c0,0,9.695,20.215,16.708,26.403c0,0-2.269,9.006-3.3,18.117
				c-1.031,9.111-7.632,20.662-7.632,20.662s3.713,7.632,9.488,10.107c0,0,4.951-8.251,13.201-25.784
				c8.251-17.533,8.87-24.546,7.632-29.29c-1.238-4.744-16.502-29.416-16.502-29.416S444.279,229.979,432.522,234.31z"/>
			<g>
				<path style="fill:#423A6B;" d="M371.787,299.95c0.32,2.757,0.443,5.53,0.481,8.304c0.049,2.775-0.056,5.552-0.271,8.325
					c-0.245,2.769-0.598,5.54-1.271,8.254c-0.346,1.353-0.754,2.696-1.301,3.988c-0.579,1.267-1.267,2.538-2.312,3.468
					c0.874-1.082,1.437-2.344,1.854-3.644c0.44-1.293,0.757-2.629,1.007-3.976c0.484-2.699,0.806-5.43,1.027-8.173
					c0.237-2.742,0.368-5.496,0.501-8.254c0.069-1.379,0.113-2.759,0.148-4.141L371.787,299.95z"/>
			</g>
			<g>
				<path style="fill:#423A6B;" d="M438.297,299.492c-0.625-0.176-1.005-0.535-1.328-0.938c-0.298-0.421-0.536-0.887-0.528-1.537
					c0.627,0.175,1.007,0.534,1.328,0.938C438.065,298.377,438.303,298.843,438.297,299.492z"/>
			</g>
			<g>
				<path style="fill:#423A6B;" d="M444.279,400.565c-1.038-7.531-1.264-15.162-1.07-22.766c0.083-3.804,0.386-7.607,0.723-11.39
					c0.348-3.775,0.606-7.562,0.871-11.347c0.544-7.571,1.016-15.148,1.472-22.728l1.449-22.737l0.007-0.106l0.087,0.056
					l2.031,1.291l-2.095-1.184l0.094-0.051c-0.154,7.595-0.44,15.186-0.763,22.775c-0.363,7.587-0.778,15.173-1.295,22.754
					c-0.294,3.789-0.583,7.577-0.961,11.362c-0.37,3.778-0.671,7.547-0.869,11.334c-0.191,3.785-0.256,7.577-0.204,11.368
					C443.79,392.988,443.945,396.781,444.279,400.565z"/>
			</g>
			<g>
				<path style="fill:#423A6B;" d="M406.373,370.449l-1.613-6.699c-0.549-2.225-1.067-4.454-1.655-6.664
					c-0.563-2.216-1.172-4.418-1.84-6.6c-0.313-1.1-0.697-2.174-1.088-3.247c-0.2-0.534-0.385-1.078-0.599-1.609
					c-0.235-0.52-0.46-1.048-0.678-1.584c1.315,1.903,2.253,4.039,3.092,6.189c0.85,2.152,1.492,4.373,2.081,6.602
					c0.569,2.235,1.065,4.486,1.437,6.76C405.892,365.867,406.222,368.147,406.373,370.449z"/>
			</g>
			<g>
				<path style="fill:#1D1E1E;" d="M430.813,269.971c-0.938,3.353-2.604,6.475-4.622,9.314c-1.017,1.418-2.149,2.757-3.4,3.976
					c-1.218,1.25-2.636,2.297-4.089,3.236c1.214-1.246,2.421-2.457,3.52-3.77c1.108-1.299,2.177-2.629,3.158-4.025
					c1.003-1.379,1.943-2.806,2.846-4.262C429.116,272.977,429.993,271.5,430.813,269.971z"/>
			</g>
			<g>
				<path style="fill:#1D1E1E;" d="M434.481,278.83c-1.34,1.62-2.887,2.994-4.49,4.301c-0.813,0.639-1.638,1.264-2.504,1.837
					c-0.864,0.572-1.757,1.122-2.73,1.53c1.467-1.493,3.001-2.854,4.61-4.146C430.986,281.074,432.64,279.841,434.481,278.83z"/>
			</g>
			<path style="fill:#423A6B;" d="M396.27,309.154c0,1.755-0.693,3.178-1.547,3.178s-1.547-1.423-1.547-3.178
				c0-1.755,0.693-3.178,1.547-3.178S396.27,307.399,396.27,309.154z"/>
			<g>
				<path style="fill:#1D1E1E;" d="M367.34,236.789c0.337-3.245,0.972-6.432,1.679-9.602c0.736-3.163,1.547-6.309,2.653-9.379
					c-0.338,3.257-0.971,6.437-1.679,9.602C369.256,230.568,368.447,233.708,367.34,236.789z"/>
			</g>
			<g>
				<path style="fill:#1D1E1E;" d="M432.522,234.31c-1.437-1.902-2.604-3.947-3.706-6.024c-1.075-2.092-2.084-4.217-2.82-6.486
					c1.439,1.902,2.606,3.945,3.706,6.023C430.774,229.917,431.784,232.043,432.522,234.31z"/>
			</g>
			<path style="fill:#CE7852;" d="M410.817,190.734l0.168-4.047l-0.015-0.008c-3.245,0.308-7.016-0.087-11.451-1.43
				c-1.837-0.557-3.443-1.288-4.85-2.158l0,0v6.207C398.682,189.853,404.589,190.523,410.817,190.734z"/>
		</g>
	</g>
</g>
<g id="DESIGNED_BY_FEREPIK">
	<g>
		<g id="XMLID_319_">
			<g id="XMLID_338_">
				<path id="XMLID_346_" style="fill:#9EB7C7;" d="M260.104,465.465c-0.432,0.443-0.803,0.931-1.108,1.453l-0.465-0.241
					c-0.067-0.298-0.349-0.503-0.659-0.466c-0.331,0.039-0.568,0.339-0.529,0.67s0.339,0.568,0.67,0.529
					c0.065-0.008,0.127-0.026,0.184-0.052l0.451,0.234c-0.251,0.554-0.433,1.139-0.539,1.744l0.746,0.132
					c0.23-1.306,0.85-2.507,1.792-3.473L260.104,465.465z"/>
				<path id="XMLID_345_" style="fill:#9EB7C7;" d="M265.592,463.163c-0.171,0-0.341,0.006-0.51,0.017l-0.074-0.626
					c0.188-0.149,0.296-0.389,0.266-0.645c-0.046-0.393-0.402-0.674-0.795-0.628s-0.674,0.402-0.628,0.795
					c0.03,0.254,0.189,0.461,0.405,0.564l0.073,0.624c-0.714,0.116-1.403,0.332-2.06,0.646l0.327,0.684
					c0.934-0.447,1.942-0.673,2.995-0.673c0.496,0,0.993,0.053,1.475,0.158l0.161-0.741
					C266.693,463.222,266.142,463.163,265.592,463.163z"/>
				<path id="XMLID_344_" style="fill:#9EB7C7;" d="M272.194,465.711c0.331-0.04,0.566-0.341,0.525-0.672
					c-0.04-0.331-0.341-0.566-0.672-0.526c-0.309,0.038-0.535,0.304-0.53,0.609l-0.416,0.363c-0.418-0.43-0.89-0.813-1.408-1.139
					l-0.404,0.641c1.134,0.715,2.021,1.726,2.563,2.925l0.691-0.313c-0.251-0.554-0.568-1.072-0.942-1.545l0.402-0.351
					C272.065,465.716,272.129,465.719,272.194,465.711z"/>
				<path id="XMLID_343_" style="fill:#9EB7C7;" d="M265.044,473.372c-0.386,0.023-0.775,0.035-1.157,0.035
					c-0.88,0-1.733-0.061-2.478-0.179c-0.39-0.062-0.846-0.155-1.27-0.292c1.046,1.861,3.069,3.125,5.388,3.125
					c2.855,0,5.262-1.916,5.95-4.504c-0.682,0.449-1.505,0.825-2.459,1.123C267.839,473.047,266.464,473.286,265.044,473.372z"/>
				<path id="XMLID_339_" style="fill:#9EB7C7;" d="M265.592,464.68c-3.352,0-6.08,2.666-6.08,5.943
					c0,0.426,0.046,0.849,0.137,1.261c0.674,0.483,2.706,0.89,5.348,0.731c2.879-0.173,5.297-0.957,6.672-2.159
					c-0.005-0.195-0.021-0.39-0.045-0.582C271.244,466.913,268.65,464.68,265.592,464.68z M263.432,471.194
					c-1.02,0-1.85-0.83-1.85-1.85c0-1.02,0.83-1.85,1.85-1.85c1.02,0,1.85,0.83,1.85,1.85
					C265.282,470.365,264.452,471.194,263.432,471.194z M268.17,470.286c-0.75,0-1.36-0.61-1.36-1.36s0.61-1.361,1.36-1.361
					c0.75,0,1.361,0.61,1.361,1.361S268.92,470.286,268.17,470.286z"/>
			</g>
			<path id="XMLID_336_" style="fill:#9EB7C7;" d="M281.595,466.547c-0.295-0.116-0.806-0.309-1.382-0.237
				c-0.551,0.069-0.844,0.341-0.844,1.007v0.866h2.228v1.717h-2.228v5.455h-1.932v-5.455h-1.34v-1.717h1.34v-0.888
				c0-1.68,0.896-2.783,2.568-2.783c0.642,0,1.157,0.122,1.59,0.308L281.595,466.547z"/>
			<path id="XMLID_334_" style="fill:#9EB7C7;" d="M286.298,469.879c-0.177-0.03-0.358-0.046-0.526-0.046
				c-0.896,0-1.51,0.548-1.51,1.614v3.908h-1.932v-7.172h1.873v0.785c0.451-0.673,1.14-0.977,2.021-0.977
				c0.414,0,0.848,0.128,1.094,0.337L286.298,469.879z"/>
			<path id="XMLID_331_" style="fill:#9EB7C7;" d="M293.965,471.757c0,0.222-0.015,0.489-0.037,0.651h-5.085
				c0.207,1.036,0.933,1.488,1.843,1.488c0.622,0,1.295-0.252,1.813-0.688l1.132,1.243c-0.814,0.748-1.85,1.088-3.057,1.088
				c-2.198,0-3.723-1.495-3.723-3.753c0-2.258,1.48-3.797,3.627-3.797C292.544,467.99,293.958,469.522,293.965,471.757z
				 M288.851,471.091h3.175c-0.177-0.918-0.733-1.436-1.562-1.436C289.554,469.655,289.021,470.203,288.851,471.091z"/>
			<path id="XMLID_328_" style="fill:#9EB7C7;" d="M301.618,471.757c0,0.222-0.015,0.489-0.037,0.651h-5.085
				c0.207,1.036,0.932,1.488,1.843,1.488c0.622,0,1.295-0.252,1.813-0.688l1.132,1.243c-0.814,0.748-1.85,1.088-3.057,1.088
				c-2.198,0-3.723-1.495-3.723-3.753c0-2.258,1.48-3.797,3.627-3.797C300.197,467.99,301.611,469.522,301.618,471.757z
				 M296.504,471.091h3.175c-0.178-0.918-0.733-1.436-1.562-1.436C297.207,469.655,296.674,470.203,296.504,471.091z"/>
			<path id="XMLID_325_" style="fill:#9EB7C7;" d="M309.964,471.764c0,2.154-1.495,3.775-3.471,3.775
				c-0.962,0-1.643-0.378-2.109-0.933v3.708h-1.924v-10.133h1.887v0.792c0.466-0.585,1.155-0.984,2.139-0.984
				C308.469,467.99,309.964,469.61,309.964,471.764z M304.287,471.764c0,1.132,0.747,1.976,1.843,1.976
				c1.14,0,1.85-0.881,1.85-1.976c0-1.095-0.71-1.976-1.85-1.976C305.035,469.788,304.287,470.632,304.287,471.764z"/>
			<path id="XMLID_322_" style="fill:#9EB7C7;" d="M313.068,465.836c0,0.696-0.54,1.229-1.236,1.229
				c-0.696,0-1.229-0.533-1.229-1.229c0-0.696,0.533-1.243,1.229-1.243C312.527,464.592,313.068,465.14,313.068,465.836z
				 M312.809,475.354h-1.932v-7.172h1.932V475.354z"/>
			<path id="XMLID_320_" style="fill:#9EB7C7;" d="M316.032,470.736l2.702-2.554h2.368l-3.479,3.375l3.501,3.797h-2.376
				l-2.716-2.901v2.901H314.1v-10.658h1.932V470.736z"/>
		</g>
		<g>
			<path style="fill:#9EB7C7;" d="M184.412,475.289v-1.055c-0.527,0.718-1.391,1.23-2.387,1.23c-1.846,0-3.149-1.406-3.149-3.706
				c0-2.256,1.289-3.721,3.149-3.721c0.952,0,1.816,0.469,2.387,1.245v-3.765h1.099v9.77H184.412z M184.412,473.37v-3.208
				c-0.395-0.615-1.245-1.143-2.124-1.143c-1.421,0-2.27,1.172-2.27,2.739c0,1.567,0.85,2.724,2.27,2.724
				C183.168,474.483,184.017,473.986,184.412,473.37z"/>
			<path style="fill:#9EB7C7;" d="M186.932,471.744c0-2.051,1.465-3.706,3.486-3.706c2.139,0,3.398,1.67,3.398,3.794v0.279h-5.727
				c0.088,1.333,1.025,2.446,2.549,2.446c0.805,0,1.626-0.322,2.182-0.894l0.527,0.718c-0.703,0.703-1.655,1.084-2.812,1.084
				C188.44,475.465,186.932,473.956,186.932,471.744z M190.403,468.947c-1.509,0-2.256,1.274-2.314,2.358h4.643
				C192.718,470.25,192.015,468.947,190.403,468.947z"/>
			<path style="fill:#9EB7C7;" d="M194.607,474.351l0.571-0.791c0.469,0.542,1.362,1.011,2.329,1.011c1.084,0,1.67-0.513,1.67-1.216
				c0-1.714-4.38-0.659-4.38-3.281c0-1.098,0.952-2.036,2.636-2.036c1.201,0,2.051,0.454,2.622,1.026l-0.513,0.762
				c-0.424-0.513-1.201-0.894-2.109-0.894c-0.967,0-1.567,0.483-1.567,1.113c0,1.552,4.38,0.527,4.38,3.281
				c0,1.187-0.952,2.138-2.783,2.138C196.306,475.465,195.325,475.113,194.607,474.351z"/>
			<path style="fill:#9EB7C7;" d="M201.477,466.471c0-0.41,0.337-0.747,0.732-0.747c0.41,0,0.747,0.337,0.747,0.747
				c0,0.41-0.337,0.732-0.747,0.732C201.814,467.203,201.477,466.881,201.477,466.471z M201.667,475.289v-7.075h1.099v7.075H201.667
				z"/>
			<path style="fill:#9EB7C7;" d="M204.582,477.105l0.556-0.82c0.586,0.703,1.289,0.967,2.3,0.967c1.172,0,2.27-0.571,2.27-2.124
				v-1.011c-0.513,0.718-1.377,1.26-2.373,1.26c-1.845,0-3.149-1.377-3.149-3.662c0-2.27,1.289-3.677,3.149-3.677
				c0.952,0,1.802,0.469,2.373,1.245v-1.069h1.098v6.87c0,2.344-1.641,3.076-3.369,3.076
				C206.237,478.16,205.417,477.926,204.582,477.105z M209.709,473.253v-3.091c-0.381-0.615-1.23-1.143-2.109-1.143
				c-1.421,0-2.27,1.128-2.27,2.695c0,1.553,0.849,2.695,2.27,2.695C208.478,474.41,209.328,473.868,209.709,473.253z"/>
			<path style="fill:#9EB7C7;" d="M217.413,475.289v-4.629c0-1.245-0.63-1.641-1.582-1.641c-0.865,0-1.685,0.527-2.095,1.099v5.17
				h-1.099v-7.075h1.099v1.025c0.498-0.586,1.464-1.201,2.519-1.201c1.48,0,2.256,0.747,2.256,2.285v4.966H217.413z"/>
			<path style="fill:#9EB7C7;" d="M219.932,471.744c0-2.051,1.465-3.706,3.486-3.706c2.139,0,3.398,1.67,3.398,3.794v0.279h-5.727
				c0.088,1.333,1.025,2.446,2.549,2.446c0.806,0,1.626-0.322,2.183-0.894l0.527,0.718c-0.703,0.703-1.655,1.084-2.812,1.084
				C221.441,475.465,219.932,473.956,219.932,471.744z M223.404,468.947c-1.509,0-2.256,1.274-2.314,2.358h4.643
				C225.718,470.25,225.015,468.947,223.404,468.947z"/>
			<path style="fill:#9EB7C7;" d="M233.35,475.289v-1.055c-0.527,0.718-1.392,1.23-2.388,1.23c-1.846,0-3.149-1.406-3.149-3.706
				c0-2.256,1.289-3.721,3.149-3.721c0.952,0,1.817,0.469,2.388,1.245v-3.765h1.098v9.77H233.35z M233.35,473.37v-3.208
				c-0.396-0.615-1.245-1.143-2.124-1.143c-1.421,0-2.27,1.172-2.27,2.739c0,1.567,0.849,2.724,2.27,2.724
				C232.105,474.483,232.954,473.986,233.35,473.37z"/>
			<path style="fill:#9EB7C7;" d="M239.692,475.289v-9.77h1.098v3.765c0.572-0.776,1.421-1.245,2.388-1.245
				c1.845,0,3.149,1.465,3.149,3.721c0,2.299-1.304,3.706-3.149,3.706c-0.996,0-1.86-0.513-2.388-1.23v1.055H239.692z
				 M242.9,474.483c1.436,0,2.285-1.157,2.285-2.724c0-1.568-0.85-2.739-2.285-2.739c-0.864,0-1.728,0.527-2.109,1.143v3.208
				C241.171,473.986,242.036,474.483,242.9,474.483z"/>
			<path style="fill:#9EB7C7;" d="M247.528,477.061c0.161,0.073,0.425,0.117,0.601,0.117c0.483,0,0.805-0.161,1.055-0.747
				l0.469-1.069l-2.959-7.148h1.187l2.358,5.8l2.344-5.8h1.201l-3.545,8.51c-0.425,1.025-1.143,1.421-2.08,1.435
				c-0.234,0-0.601-0.044-0.805-0.103L247.528,477.061z"/>
		</g>
	</g>
</g>
</svg>
