<?xml version="1.0" encoding="utf-8"?>
<!-- Generator: Adobe Illustrator 27.5.0, SVG Export Plug-In . SVG Version: 6.00 Build 0)  -->
<svg version="1.1" xmlns="http://www.w3.org/2000/svg" xmlns:xlink="http://www.w3.org/1999/xlink" x="0px" y="0px"
	 viewBox="0 0 500 500" style="enable-background:new 0 0 500 500;" xml:space="preserve">
<g id="Floor">
	<path id="Floor_00000107546091872320235720000007954148778106467252_" style="fill:#F5F5F5;" d="M86.901,263.393
		c-90.074,52.005-90.072,136.321,0.005,188.325c90.077,52.005,236.118,52.005,326.192,0c90.074-52.005,90.072-136.321-0.005-188.325
		C323.017,211.388,176.975,211.388,86.901,263.393z"/>
</g>
<g id="World">
	<g id="World_1_">
		<path id="XMLID_265_" style="fill:#EBEBEB;" d="M124.965,212.655c30.066,69.046,110.426,100.625,179.473,70.559
			c42.552-18.529,70.904-56.166,79.316-98.457c5.28-26.36,2.826-54.503-8.711-80.997C344.977,34.713,264.603,3.102,195.556,33.168
			c-26.526,11.551-47.545,30.543-61.636,53.437C111.329,123.347,106.45,170.135,124.965,212.655z"/>
		<path style="fill:#FAFAFA;" d="M118.813,137.831c-0.232-0.431-1.824-4.802-1.776-4.832c0.233-0.144,0.32-0.311,0.305-0.461
			c-0.016-0.17-0.615-0.79-0.998-1.426c-0.334,1.637-0.633,3.282-0.907,4.932c0.427,0.726,1.193,1.499,1.535,2.006
			c0.45,0.666,1.092,2.822,1.842,2.917C120.114,141.134,119.05,138.271,118.813,137.831z M171.439,49.328
			c0.376,0.382,1.326,0.57,1.826,0.688c0.306,0.073,0.583,0.174,0.756,0.371c0.559,0.634-1.17,2.233-0.782,2.952
			c0.234,0.435,1.025,0.428,1.586,0.52c0.847,0.14,1.614,0.363,2.59,0.317c0.55-0.026,1.133-0.174,1.724-0.347
			c1-0.293,2.825-0.427,4.209-0.556c1.022-0.095,1.968-0.494,2.241-1.893c0.189-0.967-0.665-1.101-1.75-0.99
			c-1.454,0.15-3.169,0.552-3.588,0.566c-0.338,0.011-0.609-0.043-0.409-0.301c0.384-0.497,2.138-0.71,2.47-0.786
			c0.718-0.164,1.44-0.35,2.145-0.519c1.172-0.281,2.488-0.468,3.049-0.577c0.346-0.067,0.702-0.157,1.058-0.29
			c0.357-0.133,1.183-0.465,1.566-0.803c0.9-0.794,0.426-1.363,1.259-2.069c0.735-0.622,1.624-0.793,2.27-1.067
			c0.756-0.321,1.588-0.547,2.37-0.992c1.471-0.835,1.637-2.106,2.799-3.229c0.71-0.686,1.482-1.153,2.217-1.514
			c1.159-0.569,2.713-1.187,3.591-1.646c0.53-0.277,1.059-0.563,1.573-0.828c0.576-0.296,1.19-0.699,1.808-1.223
			c0.371-0.314,0.721-0.715,1.071-1.029c0.431-0.386,0.727-0.485,1.092-0.637c0.809-0.336,2.124-0.984,3.017-2.302
			c0.935-1.381-0.285-1.202-0.481-1.563c-0.333-0.611-1.067-0.667-1.886-0.674c-1.791-0.017-4.047,0.493-6.215,0.694
			c-3.038,1.076-6.061,2.258-9.061,3.564c-2.576,1.122-5.083,2.334-7.554,3.593c0.364,0.412,1.11,0.652,1.342,0.762
			c1.135,0.541,3.363-0.413,5.035-0.654c0.748-0.108,3.079-0.695,3.094-0.013c0.024,1.057-2.607,1.864-3.163,2.021
			c-0.583,0.164-0.976,0.341-1.294,0.634c-0.74,0.681-1.919,1.559-2.494,1.018c-0.363-0.341-0.643-0.784-1.1-0.922
			c-0.427-0.13-0.708,0-0.999,0.319c-0.589,0.646-2.157,1.597-2.233,0.713c-0.046-0.522,0.114-1.221-0.244-1.502
			c-0.286-0.225-0.754-0.285-0.998-0.544c-0.048-0.05-0.079-0.114-0.117-0.172c-2.476,1.344-4.897,2.754-7.259,4.231
			c0.101,0.25,0.24,0.485,0.415,0.696c0.476,0.576,1.533,1.11,2.294,1.186c0.461,0.046,0.971,0.037,1.501-0.017
			c0.613-0.062,2.128-0.715,2.472-0.486c0.354,0.237-0.576,1.425-1.255,2.053c-1.097,1.015-2.757,1.899-3.804,2.265
			c-2.126,0.743-3.258,0.676-4.472,0.196c-0.411-0.162-2.06-0.947-2.885-0.404C171.087,48.632,171.152,49.036,171.439,49.328z
			 M159.529,61.189c1.277,1.046,3.321-0.227,4.578-1.546c1.595-1.673-0.486-2.117,0.458-2.64c0.663-0.367,1.474-0.806,1.251-1.162
			c-0.057-0.118-0.25-0.151-0.318-0.26c-0.119-0.193-0.982-0.291-2.645,0.257c-1.663,0.548-2.32,1.923-3.491,2.212
			C158.192,58.34,158.68,60.494,159.529,61.189z M167.339,52.435c0.263-0.264,1.742-1.87,1.476-2.744
			c-0.128-0.424-0.569-0.444-1.079-0.283c-0.684,0.516-1.351,1.05-2.024,1.578c-0.076,0.423,0.125,0.861,0.178,1.359
			C165.973,53.116,167.076,52.699,167.339,52.435z M211.686,35.315c-0.897,1.38-2.558,0.769-3.243,0.941
			c-0.248,0.062-0.626,0.188-1.018,0.404c-0.615,0.34-1.503,1.73-1.582,2.415c-0.037,0.322-0.172,0.582-1.203,1.221
			c-1.488,0.923-2.672,1.39-4.115,1.986c-1.012,0.418-1.973,0.96-2.938,2.282c-0.778,1.067-0.352,1.109-0.075,1.536
			c0.142,0.219,0.22,0.456,0.257,0.728c0.065,0.471-0.1,1.693,0.423,1.958c0.522,0.265,2.395-0.19,3.778-0.461
			c2.341-0.458,4.524-0.685,5.251,1.312c0.23,0.632,0.285,1.345,0.172,2.155c-0.197,1.414-1.443,3.848-2.151,5.194
			c-0.463,0.88-0.823,1.735-0.696,2.346c0.287,1.381,1.856,1.627,2.132,3.188c0.217,1.228-0.492,2.785-1.464,4.122
			c-1.08,1.486-2.163,1.911-3.326,3.125c-1.118,1.169-1.105,2.775-1.552,4.144c-0.583,1.783-0.634,3.455-0.55,5.147
			c0.092,1.846,0.395,3.715,0.743,5.529c0.15,0.777,0.355,1.465,0.683,2.007c0.566,0.938,2.489,1.446,3.925,1.345
			c0.92-0.064,1.873-0.373,2.647-1.027c1.795-1.517,1.942-4.298,2.919-6.384c0.914-1.953,2.168-2.871,3.648-3.344
			c1.409-0.45,3.208-0.618,4.53-1.781c1.085-0.955,1.917-2.587,3.041-3.443c1.511-1.151,3.495-0.767,5.021-1.151
			c1.05-0.264,3.178-0.952,3.599-2.38c0.227-0.77,0.004-1.228,0.502-1.919c0.308-0.427,0.881-0.68,1.256-0.837
			c0.178-0.074,0.496-0.1,0.797-0.179c0.439-0.115,0.756-1.083,0.54-1.626c-0.149-0.373-0.337-0.725-0.403-0.967
			c-0.502-1.838-0.393-3.239,1.09-3.99c1.245-0.63,3.476-1.952,3.402-4.151c-0.044-1.317-0.686-1.903-0.42-3.315
			c0.108-0.572,0.291-1.069,0.525-1.514c0.393-0.749,1.256-1.549,1.718-2.128c0.292-0.366,0.488-0.8,0.389-1.406
			c-0.167-1.019-1.07-1.258-1.438-1.925c-1.893-3.43,7.089-7.97,6.558-9.529c-0.087-0.256-0.349-0.441-0.62-0.574
			c-0.373-0.185-1.133-0.464-1.692-0.547c-0.352-0.052-0.702-0.058-1.012,0.001c-0.469,0.088-0.901,0.445-1.335,0.829
			c-0.715,0.633-1.607,1.322-1.791,1.036c-0.071-0.11-0.084-0.349-0.226-0.688c-0.403-0.963-0.581-0.296-1.312-0.044
			c-0.36,0.124-1.521,0.041-1.421-0.986c0.107-1.094,1.351-1.921,1.76-2.419c0.366-0.445,0.73-0.702,1.103-0.834
			c0.62-0.219,0.791-1.606,0.05-2.541c-0.829-1.045-1.892-1.482-2.631-1.789c-1.95-0.812-3.916-0.808-6.054-0.25
			c-1.024,0.267-2.101,0.667-3.288,1.346c-1.505,0.861-3.211,3.12-4.913,4.097c-1.129,0.648-1.772,0.282-2.455-0.043
			c-1.299-0.619-2.978-1.398-5.857,0.77C211.581,33.652,212.569,33.956,211.686,35.315z M367.645,206.779
			c-0.539,1.413-0.438,2.826-0.187,4.08c0.219,1.094,0.275,2.001,0.842,2.814c1.036,1.487,2.873,2.412,4.802,1.128
			c0.316-0.21,0.575-0.464,0.805-0.757c0.382-0.486,0.905-1.506,1.407-2.092c0.733-1.711,1.423-3.439,2.086-5.178
			c-0.192-0.732-0.269-1.404,0.516-2.293c0.942-1.066,1.371-2.671,0.103-3.097c-1.286-0.432-2.113,0.831-3.252,1.701
			c-1.336,1.02-2.961,1.949-4.367,2.645C369.47,206.192,368.208,205.303,367.645,206.779z M267.071,44.881
			c0.281,0.417,0.501,0.956,0.768,1.4c0.348,0.579,0.73,0.988,1.129,1.371c0.683,0.655,1.33,1.328,1.423,1.482
			c0.056,0.093,0.103,0.192,0.137,0.293c0.129,0.391,0.005,0.285-0.059,0.542c-0.121,0.479,0.134,0.814,0.566,1.153
			c0.338,0.265,0.686,0.648,1.039,0.994c0.572,0.559,1.771,0.964,2.099,0.322c0.195-0.383,0.297-0.917,0.385-1.378
			c0.148-0.782,0.212-1.674,0.512-2.323c0.03-0.066,0.065-0.196,0.104-0.321c0.056-0.179,0.524-0.34,1.044,0.069
			c0.357,0.281,0.721,0.634,0.93,0.798c0.172,0.134,0.292,0.21,0.375,0.289c0.199,0.19,0.128,0.549,0.101,0.669
			c-0.014,0.061-0.01,0.136,0.052,0.26c0.107,0.214,0.254,0.262,0.398,0.374c0.48,0.375,1.075,0.737,1.566,0.905
			c0.17,0.058,0.433,0.101,0.676,0.097c0.358-0.007,0.78-0.7,0.334-1.11c-0.445-0.41-1.523-0.946-2.25-1.75
			c-0.443-0.49-0.836-1.063-1.109-1.686c-0.525-1.197,0.301-1.268,0.959-1.153c0.535,0.094,1.074,0.145,1.594,0.133
			c0.855-0.019,1.885-0.37,2.216-0.793c0.33-0.423,0.179-1.166,0.147-1.233c-0.019-0.04-0.04-0.079-0.064-0.12
			c-0.536-0.905-1.417-0.95-1.982-1.004c-0.847-0.081-1.775-0.213-2.642-0.381c-0.375-0.072-0.774-0.078-1.161-0.234
			c-0.301-0.121-0.561-0.308-0.856-0.322c-0.565-0.026-1.092,0.173-1.568,0.368c-0.56,0.229-1.139,0.355-1.826,0.193
			c-0.361-0.085-0.925-0.401-1.036,0.048c-0.16,0.647,0.551,1.394,0.591,2.055c0.03,0.499-0.498,0.215-0.786-0.225
			c-0.294-0.449-0.18-1.002-0.444-1.407c-0.258-0.396-0.518-0.287-0.614-0.105c-0.171,0.324-0.166,0.851-0.732,0.305
			c-0.322-0.311-0.425-0.669-0.812-0.865c-0.659-0.334-2.286-0.1-1.894,1.241C266.515,44.292,266.828,44.522,267.071,44.881z
			 M316.67,77.915c0.513,0.454,0.995,1.032,1.533,1.399c0.777,0.53,1.783,0.746,2.378,0.383c0.462-0.281,0.082-1.25-0.124-1.937
			c-0.08-0.266-0.179-0.515-0.266-0.764c-0.147-0.422-0.289-1.604-0.152-2.49c0.083-0.538,0.231-1.033,0.427-1.455
			c0.461-0.994,1.161-1.722,1.961-2.289c1.157-0.821,3.192-1.6,4.413-1.947c0.737-0.209,1.489-0.382,2.244-0.531
			c0.461-0.091,0.924-0.172,1.388-0.245c0.348-0.055,0.793,0.053,1.103-0.053c0.452-0.154,1.136-0.979,0.273-1.844
			c-0.129-0.13-0.252-0.224-0.37-0.292c-0.401-0.229-0.748-0.149-1.081-0.065c-0.881,0.222-1.903,0.245-2.917,0.159
			c-4.065-0.345-7.562,0.526-9.53,3.894c-0.778,1.333-1.698,2.864-1.89,3.682c-0.116,0.492-0.245,0.987-0.783,0.971
			c-0.342-0.011-0.512,0.078-0.461,0.547C314.942,76.211,315.891,77.226,316.67,77.915z M243.279,81.524
			c1.239-1.711-0.527-4.962-1.506-4.98c-0.592-0.011-1.236,0.432-1.749,0.555c-0.606,0.083-1.302-0.085-1.915-0.121
			c-1.059-0.062-2.331,1.235-2.919,0.119c-0.587-1.116-1.826,1.928-1.067,3.939C235.868,85.662,241.412,84.103,243.279,81.524z
			 M368.719,219.405c-0.772-0.311-2.348-0.426-3.388-0.596c-0.643-0.106-1.259-0.272-1.763-0.619
			c-0.261-0.18-0.522-0.454-0.667-0.792c-0.335-0.783,0.056-1.708,0.33-2.652c0.351-1.208,0.103-1.975-0.293-2.857
			c-0.171-0.382-0.337-0.793-0.52-1.158c-0.296-0.59-0.814-0.928-1.092-1.537c-0.25-0.547-0.514-1.281-0.31-2.046
			c0.133-0.501,0.422-0.762,0.722-1.015c0.499-0.419,0.98-1.662,0.89-2.467c-0.06-0.527-0.174-1.041-0.231-1.421
			c-0.108-0.722-0.329-1.406-0.525-2.075c-0.1-0.339-0.31-0.579-0.408-0.913c-0.596-2.027-0.938-5.23-0.226-7.537
			c0.222-0.72,0.613-1.413,1.241-1.263c0.186,0.044,0.354,0.164,0.504,0.313c0.243,0.242,0.628,0.94,0.882,1.515
			c0.212,0.48,0.429,0.945,0.536,0.956c1.297,0.128,0.513,4.805,2.556,3.196c0.635-0.5,1.428-0.706,2.092-1.194
			c0.269-0.198,0.533-0.414,0.785-0.652c0.417-0.394,1.223-1.409,1.557-2.347c0.199-0.559,0.313-1.147,0.338-1.745
			c0.056-1.308-0.264-2.539-0.672-3.649c-0.231-0.627-0.477-1.339-0.826-1.871c-0.361-0.55-0.618-0.834-0.495-1.654
			c0.263-1.76,2.106-3.482,3.523-2.674c0.922,0.526,1.788,0.647,2.835-0.03c1.148-0.742,2.151-1.631,3.438-1.945
			c1.646-0.402,3.789-0.723,5.211-1.816c0.125-0.096,0.256-0.197,0.389-0.302c0.77-5.593,1.198-11.249,1.264-16.936
			c0.006-0.605,0.009-1.605,0.005-2.463c-0.119-17.863-3.777-35.987-11.359-53.399c-3.963-9.102-8.808-17.546-14.379-25.291
			c-0.268-0.016-0.548-0.046-0.849-0.09c-1.284-0.189-2.656-0.55-3.925-0.469c-1.037,0.066-1.888,0.743-2.535,1.636
			c-0.402,0.555-0.763,1.034-1.366,1.272c-0.68,0.268-1.289,0.188-2.129,0.018c-0.541-0.109-1.586-0.361-1.541,0.578
			c0.042,0.869,1.193,2.319,1.526,3.212c0.747,2.004-1.472,0.067-2.036-0.433c-0.653-0.579-1.359-1.139-2.04-1.388
			c-0.426-0.156-1.36-0.641-1.496-0.11c-0.113,0.442,0.268,1.32,0.439,1.818c0.255,0.739,0.27,0.978-0.25,1.036
			c-0.535,0.06-1.114,0.029-1.657,0.074c-0.736,0.061-1.824,0.056-2.665-0.378c-1.1-0.568-1.711-1.964-2.067-3.294
			c-0.208-0.776-0.267-1.222-0.832-1.861c-0.441-0.499-0.958-0.904-1.453-1.042c-1.118-0.313-1.478,0.747-1.463,1.929
			c0.015,1.167-1.078,1.312-0.947,2.443c0.131,1.138,0.909,2.178,1.551,3.112c0.543,0.789,1.541,1.944,1.098,2.671
			c-0.64,1.049-2.019-0.107-2.958-0.981c-1.27-1.183-2.613-2.156-3.888-3.351c-1.144-1.072-2.479-1.711-3.704-2.068
			c-0.706-0.205-1.224,0.092-0.539,1.14c0.317,0.485,1.536,1.485,1.263,2.188c-0.269,0.693-1.859,0.208-2.388,0.168
			c-1.463-0.11-2.946-0.15-4.474-0.654c-1.121-0.369-2.26-1.084-3.351-1.059c-0.447,0.011-1.003,0.073-1.518,0.23
			c-0.802,0.244-1.418,1.06-1.611,1.337c-0.098,0.141-0.223,0.25-0.463,0.31c-0.185,0.046-0.391,0.07-0.603,0.064
			c-0.344-0.01-1.46-0.717-1.321-1.766c0.09-0.684,0.235-1.412-0.298-1.917c-0.543-0.516-1.744-0.783-2.241-0.609
			c-0.299,0.104-0.468,0.323-0.566,0.616c-0.174,0.518-0.116,2.024-0.414,3.006c-0.181,0.595-0.47,1.09-0.918,1.358
			c-0.391,0.235-0.848,0.231-1.272,0.365c-0.637,0.202-0.956,0.56-1.399,1.167c-0.744,1.021-1.353,1.961-2.541,2.012
			c-1.169,0.05-1.96-0.563-2.854-1.981c-0.575-0.913-1.342-2.08-1.799-3.1c-0.747-1.667,1.266-0.556,1.82-0.332
			c0.828,0.335,1.667,0.438,2.491,0.708c0.69,0.227,1.402,0.388,2.082,0.433c0.561,0.037,1.559,0.085,1.641-0.837
			c0.182-2.036-3.39-4.915-4.416-5.804c-0.494-0.428-0.994-0.837-1.498-1.23c-0.835-0.651-2.266-1.719-3.197-2.38
			c-0.607-0.432-1.218-0.805-1.71-0.913c-0.946-0.209-1.889,0.928-2.635-1.136c-0.441-1.222-0.756-1.685-1.731-2.118
			c-1.819-0.808-3.964-0.99-5.54-0.64c-0.498,0.111-0.996,0.315-1.465,0.587c-0.762,0.441-1.645,1.41-2.216,1.605
			c-0.333,0.114-0.696,0.125-1.112,0.012c-2.251-0.611-3.383,1.304-4.064,4.042c-0.181,0.729-0.288,1.583-0.53,2.285
			c-0.141,0.41-0.353,0.77-0.583,1.107c-0.374,0.548-1.287,1.796-1.998,2.842c-0.429,0.631-0.881,1.262-1.333,1.938
			c-1.253,1.871-2.661,3.76-4.124,5.728c-1.041,1.401-1.983,3.025-1.961,4.868c0.017,1.453,0.806,2.618,1.705,3.544
			c1.113,1.145,2.373,1.064,3.606,0.82c1.821-0.36,2.435,0.627,2.931,2.847c0.215,0.965,0.381,2.117,1.054,2.792
			c0.653,0.654,1.772,0.993,2.544,0.848c0.98-0.185,1.462-1.152,1.534-2.372c0.076-1.263,0.346-2.005,1.102-2.683
			c0.737-0.661,0.808-1.66,0.627-2.709c-0.292-1.685-1.131-3.898-1.199-4.996c-0.039-0.629,0.01-1.243,0.231-1.853
			c0.186-0.514,0.415-0.986,0.671-1.404c0.42-0.687,1.719-1.854,2.703-2.984c0.573-0.657,1.09-1.41,1.514-2.442
			c0.188-0.458,0.387-0.877,0.639-1.174c0.435-0.512,1.458-0.486,2.061-0.176c0.381,0.196,0.728,0.53,0.897,1.11
			c0.302,1.037-0.361,2.305-0.75,2.899c-0.585,0.893-1.464,0.987-2.098,1.778c-0.611,0.764-0.798,2.321-0.93,3.597
			c-0.123,1.193-0.406,2.767,0.107,3.87c0.641,1.378,2.309,1.313,3.388,1.39c0.486,0.035,1.036,0.073,1.583,0.158
			c0.878,0.135,1.889,0.534,2.215,0.814c0.326,0.28,0.542,1.366,0.132,1.526c-0.227,0.089-0.535,0.062-0.786,0.059
			c-1.086-0.016-2.17-0.311-3.245-0.376c-0.682-0.041-1.747-0.26-2.011,0.778c-0.202,0.79,0.462,1.575,0.816,2.138
			c0.332,0.53,0.764,1.197,0.515,1.89c-0.146,0.407-0.502,0.513-0.832,0.41c-0.48-0.15-0.984-0.731-1.315-1.208
			c-0.229-0.328-0.506-0.951-0.885-0.817c-0.606,0.213-0.573,2.268-0.632,2.907c-0.103,1.11-0.293,2.343-0.945,3.093
			c-1.407,1.617-3.707,1.211-5.509,0.871c-1.063-0.201-2.188-0.725-3.212-1.131c-0.657-0.26-1.447-0.48-1.988-1.01
			c-1.312-1.289-0.113-3.934-0.197-5.62c-0.098-1.982-1.919-0.874-2.38,0.224c-0.729,1.737,0.405,4.06-0.434,5.667
			c-0.581,1.115-2,0.942-2.969,1.168c-1.332,0.311-2.171,1.568-2.577,3.05c-0.223,0.815-0.872,1.182-1.414,1.658
			c-0.736,0.644-1.535,1.141-2.283,1.711c-0.569,0.433-1.173,0.713-1.89,0.617c-0.447-0.06-1.033-0.494-1.412-0.231
			c-0.481,0.334-0.279,0.991-0.977,1.147c-0.753,0.169-1.608-0.277-2.373-0.281c-0.511-0.003-1.298,0.244-0.906,0.951
			c0.347,0.624,1.305,1.084,1.812,1.517c1.063,0.91,1.274,2.332,1.198,3.826c-0.105,2.048-0.829,3.585-2.749,3.49
			c-1.909-0.094-3.646-0.75-5.642-0.162c-1.731,0.51-2.13,3.661-2.373,5.416c-0.122,0.882-0.065,1.318,0.252,2.103
			c0.223,0.553,0.246,1.248,0.6,1.712c0.45,0.592,1.241,0.804,1.905,0.862c0.833,0.074,1.263,0.333,1.859,1.006
			c0.148,0.166,0.25,0.302,0.376,0.391c0.239,0.17,0.704-0.486,1.255-0.53c0.313-0.025,0.661,0.088,0.979,0.165
			c0.304,0.074,0.631,0.211,0.949,0.186c0.326-0.026,0.507-0.328,0.747-0.382c0.956-0.211,1.511-1.106,1.939-2.032
			c0.21-0.454,0.377-0.937,0.603-1.38c0.275-0.538,0.691-0.887,1.008-1.384c0.225-0.353,0.337-0.771,0.606-1.079
			c0.544-0.624,1.143-0.422,1.809-0.542c0.859-0.155,1.356-0.664,1.683-1.628c0.241-0.71,0.322-1.559,1.059-1.758
			c0.59-0.159,1.185,0.357,1.764,0.459c1.005,0.178,1.91-0.42,2.822-0.772c1.821-0.704,3.111,0.033,3.911,1.975
			c0.357,0.868,0.729,1.768,1.242,2.539c0.393,0.592,0.945,0.981,1.338,1.581c0.493,0.755,1.146,1.366,1.622,2.093
			c0.563,0.859,0.23,2.117-0.114,3.03c-0.138,0.367-0.522,0.924-0.297,1.299c0.252,0.421,0.698,0.094,0.954-0.119
			c0.836-0.694,0.835-1.681,0.985-2.799c0.068-0.511,0.082-1.141,0.522-1.228c0.187-0.037,0.385,0.108,0.582,0.203
			c0.315,0.152,0.43-0.956-0.199-1.595c-0.418-0.425-0.882-0.737-1.245-0.814c-0.349-0.074-1.08-1.463-1.323-1.801
			c-0.601-0.836-1.201-1.703-1.687-2.653c-0.339-0.664-0.789-1.576-0.671-2.414c0.177-1.254,1.406-0.98,2.006-0.332
			c0.484,0.522,0.439,1.252,0.674,1.929c0.52,1.497,1.917,1.982,2.893,2.866c0.684,0.62,0.578,1.305,0.776,2.259
			c0.152,0.733,0.476,1.411,0.497,2.176c0.014,0.547-0.029,0.617,0.246,1.065c0.261,0.424,0.573,0.779,0.891,1.138
			c0.278,0.315,0.681,0.597,0.885,0.991c0.231,0.445,0.115,0.388-0.007,0.801c-0.264,0.893-0.428,1.815,0.334,2.426
			c0.86,0.689,1.169-1.012,1.587-1.629c0.299-0.441,0.571-0.794,0.45-1.428c-0.096-0.506-0.55-0.886-0.681-1.385
			c-0.334-1.27,0.758-0.994,1.354-1.307c0.752-0.395,1.603-1.152,2.444-0.311c0.481,0.481,0.313,0.874,0.181,1.479
			c-0.159,0.731,0.063,1.292,0.156,2.027c0.085,0.673-0.041,1.407,0.211,2.001c0.639,1.501,2.1,2.57,3.428,2.776
			c0.602,0.093,1.225-0.312,1.806-0.078c0.248,0.1,0.391,0.35,0.61,0.49c0.384,0.244,0.885,0.304,1.312,0.338
			c0.6,0.048,1.2-0.07,1.803,0.015c0.978,0.137,1.226,0.454,0.821,1.549c-0.631,1.704-1.233,3.223-1.66,5.039
			c-0.152,0.644-0.206,2.301-0.673,2.712c-0.572,0.502-1.381-0.665-1.825-0.972c-1.273-0.882-2.911-1.264-4.37-1.374
			c-0.796-0.06-1.591-0.119-2.376-0.277c-0.612-0.123-1.653-0.255-2.136-0.761c-1.015-1.064-3.594-4.067-5.093-2.298
			c-1.004,1.185-0.919,3.695-2.861,3.028c-0.939-0.323-1.628-1.102-2.414-1.697c-1.189-0.9-2.465-1.589-3.774-2.206
			c-0.852-0.402-1.78-0.966-2.339-1.932c-0.771-1.332,0.804-1.496,1.146-2.658c0.288-0.982,0.111-2.36-0.587-3.046
			c-0.611-0.6-1.591-0.693-2.384-0.775c-0.431-0.044-0.8-0.213-1.228-0.279c-0.487-0.076-0.953,0.109-1.439,0.163
			c-1.022,0.111-2.057-0.016-3.052-0.129c-0.541-0.062-1.074-0.13-1.601-0.174c-0.316-0.027-1.114-0.239-1.396-0.049
			c-1.499,1.01-3.353,2.068-5.173,1.679c-1.148-0.246-2.067-0.749-3.288-0.431c-1.171,0.305-2.271,1.017-3.294,1.727
			c-0.857,0.594-1.68,1.246-2.499,1.907c-0.96,0.775-1.077,1.964-1.239,3.229c-0.113,0.879-0.367,1.311-0.93,1.971
			c-0.845,0.992-1.816,1.647-2.966,2.113c-1.194,0.483-2.5,0.99-3.324,2.133c-0.785,1.088-1.526,2.119-2.071,3.311
			c-1.059,2.318-1.596,5.233-0.75,7.836c0.224,0.688-0.893,2.56-1.131,3.228c-0.436,1.221-0.663,2.492-0.34,3.813
			c0.229,0.935,0.566,1.644,1.114,2.362c1.055,1.384,1.539,3.205,2.372,4.826c0.796,1.547,1.68,3.053,2.738,4.358
			c1.391,1.716,3.149,2.973,5.098,3.4c0.942,0.206,2.004,0.298,2.939-0.022c0.541-0.185,1.059-0.193,1.579-0.163
			c0.872,0.051,2.367,0.015,3.295-0.348c0.568-0.222,1.136-0.492,1.659-0.718c1.171-0.506,2.284-0.692,3.435-0.016
			c0.455,0.267,0.84,0.652,1.208,1.066c0.607,0.685,1.58,1.795,2.294,2.241c0.41,0.256,0.848,0.433,1.382,0.541
			c0.799,0.162,1.57,0.656,2.097,1.345c1.428,1.869,0.208,3.953-1.008,5.739c-1.129,1.659-0.658,3.584-0.064,5.162
			c0.285,0.755,0.46,1.514,0.76,2.231c0.304,0.724,0.732,1.547,0.769,2.477c0.033,0.839,0.132,1.611,0.195,2.398
			c0.108,1.328-0.133,3.511-0.455,4.787c-0.195,0.769-0.432,1.532-0.693,2.284c-0.128,0.369-0.26,0.74-0.398,1.109
			c-0.228,0.61-0.622,1.511-0.913,1.971c-0.172,0.271-0.345,0.542-0.492,0.869c-0.328,0.729-0.542,1.511-0.724,2.305
			c-0.301,1.308-0.872,3.587-1.153,4.904c-0.171,0.803-0.289,1.603-0.284,2.379c0.024,3.58,0.714,6.984,1.327,10.352
			c0.294,1.615,0.499,3.285,0.772,4.88c0.139,0.813,0.184,1.674,0.387,2.479c0.239,0.946,0.061,1.68,0.094,2.663
			c0.062,1.837,0.485,3.018,1.846,3.635c1.142,0.518,2.502,0.279,3.719,0.062c2.58-0.461,5.177-1.621,7.438-3.611
			c1.413-1.244,2.446-2.763,3.526-4.491c0.489-0.782,0.924-1.453,1.261-2.382c0.327-0.903,0.574-1.847,0.967-2.731
			c0.598-1.347,1.158-2.839,1.828-4.144c1.052-2.051,1.658-3.864,3.429-5.285c0.846-0.678,1.663-1.135,2.573-1.723
			c1.397-0.903,3.923-2.341,4.316-4.555c1.862-10.484,0.053-19.112,10.637-25.471c2.94-2.419,6.91-6.592,8.488-10.77
			c0.75-1.985-0.418-3.486-1.79-3.156c-0.828,0.199-1.658,0.383-2.494,0.484c-0.769,0.092-1.539,0.07-2.302,0.119
			c-0.801,0.051-1.378-0.437-2.068-0.835c-0.676-0.39-0.983-0.847-1.148-1.734c-0.156-0.84,0.067-1.628-0.019-2.455
			c-0.088-0.845-0.608-1.332-1.038-1.921c-0.968-1.324-1.713-2.714-2.238-4.379c-0.531-1.684-0.469-3.299-0.527-5.066
			c-0.043-1.291-0.448-2.163-0.921-3.249c-0.449-1.034-0.797-2.093-1.101-3.276c-0.288-1.119-1.393-4.994,0.173-5.545
			c1.23-0.432,1.611,2.999,1.883,3.93c0.538,1.846,1.159,3.55,1.804,5.231c0.332,0.864,0.67,1.728,1.007,2.596
			c0.558,1.438,1.213,3.199,1.468,3.922c0.154,0.436,0.304,0.875,0.45,1.317c0.235,0.71,0.784,1.788,0.783,2.571
			c-0.003,3.395,0.738,5.345,2.595,5.492c1.702,0.135,4.418-1.268,6.078-1.904c3.08-1.179,6.052-2.574,8.526-4.103
			c0.649-0.401,1.352-1.427,1.882-2.017c0.678-0.754,1.427-1.592,1.805-2.585c0.333-0.873,0.208-1.656-0.45-2.215
			c-0.429-0.364-1.009-0.25-1.351-0.658c-0.415-0.496-0.375-1.391-0.666-1.974c-0.563-1.129-1.459-0.514-2.315-0.166
			c-0.809,0.328-2.674,1.134-3.363,0.364c-0.486-0.544-0.105-1.052-0.29-1.668c-0.163-0.539-0.578-0.389-0.966-0.579
			c-0.99-0.483-1.186-2.066-1.535-3.135c-0.265-0.812-0.852-2.626-0.438-3.509c0.693-1.478,1.998,0.825,2.386,1.431
			c0.488,0.764,1.131,1.307,1.531,2.112c0.338,0.681,0.872,1.108,1.45,1.462c0.558,0.342,1.21,0.911,1.794,1.134
			c0.487,0.186,1.034,0.066,1.522,0.328c0.292,0.157,0.521,0.388,0.697,0.672c0.299,0.482,1.527,1.927,3.18,2.171
			c1.443,0.213,2.982,0.085,4.354,0.175c0.994,0.065,2.31,0.166,3.153,0.767c1.02,0.728,2.021,1.914,2.36,3.266
			c0.274,1.093,0.425,2.591,1.381,3.259c0.987,0.689,1.977-1.65,2.495-0.982c0.279,0.36,0.099,1.315,0.068,1.76
			c-0.039,0.569-0.014,1.115,0.01,1.689c0.053,1.294,0.099,2.6,0.158,3.915c0.12,2.665,0.239,5.427,0.706,8.07
			c0.222,1.262,0.546,3.168,1.572,3.728c0.453,0.247,1.316-0.303,1.715-0.726c0.413-0.438,0.626-0.99,0.893-1.538
			c0.34-0.699,0.601-1.421,0.85-2.143c0.413-1.203,1.113-3,1.673-3.928c0.337-0.559,0.709-1.085,1.108-1.575
			c0.732-0.899,1.575-1.835,2.452-2.483c0.727-0.538,1.41-0.85,2.066-1.558c0.253-0.273,0.495-0.561,0.739-0.844
			c0.404-0.469,1.072-1.176,1.504-1.557c0.275-0.243,0.565-0.447,0.857-0.518c0.353-0.085,0.751,0.043,1.107,0.034
			c0.75-0.018,1.065-0.578,1.73-0.832c0.581-0.222,1.177,0.349,1.489,0.843c0.888,1.404,0.589,3.399,0.5,5.101
			c-0.044,0.842-0.144,1.919,0.637,2.133c0.738,0.202,1.332-0.214,1.853,0.54c0.549,0.794,0.385,2.149,0.606,3.152
			c0.207,0.939,0.916,1.466,0.863,2.525c-0.034,0.68-0.32,0.748-0.665,1.221c-0.369,0.507-0.262,0.864-0.189,1.431
			c0.085,0.665,0.035,1.169-0.231,1.825c-0.213,0.525-0.656,1.032-0.683,1.626c-0.021,0.462,0.19,0.655,0.44,0.807
			c0.405,0.246,0.819,1.012,0.856,1.652c0.025,0.424,0.024,0.862,0.034,1.172c0.017,0.497,0.006,0.991,0.124,1.401
			c0.044,0.153,0.101,0.273,0.15,0.403c0.083,0.222,0.144,0.916-0.016,1.502c-0.104,0.377-0.284,0.707-0.574,0.79
			c-0.261,0.074-0.545-0.133-0.811-0.397c-0.383-0.379-0.956-0.98-1.317-1.28c-0.226-0.188-0.465-0.349-0.717-0.409
			c-1.372-0.326-0.379,3.221-0.123,3.803c0.211,0.48,0.498,0.878,0.706,1.356c0.241,0.553,0.195,0.958,0.225,1.598
			c0.055,1.177,0.484,2.418,0.755,3.452c0.286,1.092,0.642,2.137,1.138,3.022c0.251,0.448,0.537,0.854,0.859,1.204
			c0.096,0.104,1.073,0.826,1.063,0.874c-0.857,3.965,2.895,2.02,4.095,3.466c0.908,1.282,2.336,1.099,3.685,1.188
			c0.38,0.025,0.752,0.014,1.08-0.024c0.17-0.319,0.33-0.643,0.497-0.964c-0.462-0.206-0.92-0.424-1.047-0.877
			C369.624,219.923,369.207,219.602,368.719,219.405z M300.072,139.213c-1.144-0.244-2.265-0.915-3.413-1.514
			c-1.575-0.823-4.291-0.618-5.983-0.522c-0.896,0.05-1.78-0.02-2.445-0.328c-1.589-0.736-0.003-4.354,0.971-6.042
			c0.575-0.998,1.157-1.93,1.837-2.408c1.446-1.016,3.786,0.987,3.29,1.377c-0.496,0.39,0.037,0.96,0.063,1.456
			c0.025,0.497,0.428,1.02,0.96,0.658c0.533-0.361,0.314-2.585,1.924-3.142c0.191-0.066,0.397-0.122,0.611-0.172
			c1.646-0.388,2.295,0.599,1.748,2.553c-0.138,0.494-0.217,0.973-0.178,1.429c0.177,2.088,2.158,2.651,2.138,2.88
			c-0.019,0.23,0.699,0.619,1.191,1.448C303.278,137.717,301.754,139.572,300.072,139.213z M313.054,148.486
			c-1.472-1.03-1.241-3.89-0.943-5.676c0.298-1.786-2.267-3.917-2.264-5.988c0.004-3.678,3.437-5.945,5.622-5.415
			c1.679,0.407,0.138,2.738-0.946,4.267c-0.379,0.534-0.18,1.104,0.264,1.949c0.928,1.77,2.318,2.724,2.932,3.568
			c0.615,0.844-0.417,1.596-1.369,1.739c-0.952,0.143,1.328,3.295,0.629,5.14C316.426,149.528,314.615,149.578,313.054,148.486z
			 M258.964,134.477c0.689-0.52,0.67-1.184-1.105-1.393c-0.272-0.065-0.775,0.343-1.132,0.817
			C256.225,134.569,257.796,135.36,258.964,134.477z M299.492,225.927c0.201-1.057,0.187-2.281,0.009-2.625
			c-0.096-0.188-0.216-0.359-0.309-0.634c-0.055-0.162-0.096-0.363-0.143-0.564c-0.054-0.229-0.115-0.459-0.216-0.631
			c-0.174-0.299-1.135-0.097-1.5,0.781c-0.232,0.557-0.387,1.211-0.521,1.641c-0.72,2.318-2.845,3.09-4.298,4.614
			c-2.025,2.124-2.016,4.757-2.551,7.285c-0.349,1.648-1.563,3.75-1.242,5.319c1.05,5.128,5.249-1.929,6.459-4.152
			c1.515-2.785,2.927-5.877,3.845-9.122C299.202,227.218,299.37,226.572,299.492,225.927z M271.544,141.281
			c0.329-0.556,0.3-1.389-0.596-1.989c-0.427-0.286-0.59,0.23-0.715,0.839C270.073,140.917,270.885,142.393,271.544,141.281z
			 M266.607,135.424c0.983-1.625,0.445-7.02-0.566-5.279c-0.159,0.274-0.319,0.62-0.467,1.006
			C264.835,133.076,265.624,137.049,266.607,135.424z M248.101,105.648c-0.327,0.153-0.31,0.565-0.587,0.732
			c-0.397,0.238-1.023-0.131-1.435-0.103c-1.17,0.082-0.497,1.438-0.435,2.148c0.046,0.522-0.094,0.956-0.326,1.402
			c-0.209,0.403-0.607,0.83-0.518,1.359c0.235,1.396,1.794,0.833,2.617,0.729c0.922-0.117,2.049-1.084,2.489-2.061
			c0.326-0.724,0.351-1.727,0.087-2.466C249.726,106.639,248.911,105.269,248.101,105.648z M158.125,151.175
			c-1.282-0.308-2.306-0.944-3.375-1.845c-0.958-0.807-2.091-1.775-3.293-1.473c-0.904,0.227-0.006,1.34,0.485,1.842
			c0.366,0.375,0.768,0.696,1.169,1.018c0.661,0.531,1.516,1.475,2.025,1.879c0.283,0.225,0.592,0.378,1.025,0.41
			c1.48,0.112,3.116-0.559,4.427,0.788c0.307,0.316,0.758,1.186,1.223,1.2c0.029,0.001,0.058-0.002,0.087-0.008
			c0.5-0.107,0.546-0.981,0.408-1.468C161.77,151.63,159.389,151.478,158.125,151.175z M251.823,112.919
			c-0.097,0.644-1.106,0.661-0.936,1.372c0.139,0.58,0.931,0.565,1.35,0.599c1.758,0.143,4.172,0.048,5.625-1.322
			c0.557-0.525,1.729-1.859,1.01-2.599c-0.275-0.282-0.668-0.365-0.923-0.718c-0.273-0.378-0.443-1.028-0.561-1.505
			c-0.213-0.861-0.352-1.681-0.686-2.501c-0.48-1.175-1.95-2.008-1.444-3.59c0.165-0.516,0.909-0.876,0.825-1.51
			c-0.046-0.35-0.376-0.471-0.582-0.662c-0.261-0.242-1.083-1.305-0.911-1.748c0.118-0.301-2.466-1.002-2.377-0.046
			c0.133,1.414-2.132,1.472-1.275,2.509c0.034,0.045,0.069,0.089,0.105,0.132c0.059,0.072-0.316,0.782-0.407,1.743
			c-0.09,0.961,1.182,1.571,1.13,2.403c-0.052,0.832,1.353,0.425,1.656,1.227c0.303,0.802,0.016,2.356-0.773,2.528
			c-0.789,0.172-0.751,1.789-1.32,2.073c-0.365,0.183-0.738,0.351-0.532,0.937C250.919,112.591,251.94,112.145,251.823,112.919z
			 M165.605,75.72c-1.053,1.618-1.505,3.207-0.774,3.714c0.73,0.507,2.998-0.345,4.512-0.495c2.167-0.215,0.653-1.464-0.478-3.09
			C168.117,74.774,166.658,74.103,165.605,75.72z M197.835,215.933c-0.027-0.827-0.425-3.309,0.096-5.425
			c0.798-3.243,4.065-4.815,5.001-8.199c0.585-2.114-1.297-4.539-2.728-5.511c-1.432-0.972-2.748-4.025-4.517-4.284
			c-0.191-0.028-0.383-0.055-0.574-0.083c-1.767-0.266-3.996-3.003-5.655-3.963c-0.379-0.219-0.765-0.401-1.157-0.569
			c-1.709-0.731-3.412-3.199-4.002-5.362c-0.549-2.012-1.313-3.951-2.618-4.979c-1.757-1.385-4.609-0.226-5.916-2.573
			c-0.646-1.16-1.143-1.872-2.097-2.705c-0.846-0.738-1.726-1.448-2.317-2.529c-0.845-1.545-1.926-0.661-3.059-1.416
			c-0.659-0.439-0.849-0.856-1.688-0.996c-1.072-0.179-2.179-0.234-3.223-0.523c-0.852-0.236-1.093-0.738-1.707-1.394
			c-1.399-1.496-4.104-1.007-5.335,0.205c-0.605,0.596-0.96,1.611-1.553,2.145c-1.194,1.076-3.253-0.3-4.462-1.239
			c-0.852-0.662-1.719-1.596-2.27-2.721c-0.639-1.304-1.223-1.715-0.932-3.21c0.211-1.08,0.658-2.443,0.036-3.523
			c-0.523-0.908-1.621-1.16-2.396-1.337c-0.682-0.155-1.637-0.011-2.245-0.503c-0.577-0.467-1.022-1.776-0.683-2.513
			c0.251-0.544,0.919-0.786,1.281-1.202c0.199-0.228,0.399-0.464,0.491-0.791c0.043-0.153-0.009-0.843,0.027-0.889
			c0.83-1.08,0.671-1.818,0.051-2.211c-1.102-0.699-3.285,0.074-3.825,1.534c-0.54,1.46-3.132,2.062-4.579,1.115
			c-2.829-1.851-3.338-7.817-1.731-11.525c0.736-1.698,3.05-3.814,4.669-3.762c1.309,0.042,2.585,0.798,4.035,1.163
			c0.586,0.203,0.638-0.225,0.7-0.655c0.1-0.699,1.463-0.439,2.466-0.326c1.004,0.113,3.172,0.881,3.942,2.61
			c0.328,0.736,0.486,1.643,0.676,2.604c0.368,1.871,2.564,3.288,2.419,1.308c-0.091-1.241-0.439-2.85-0.563-4.272
			c-0.172-1.969,1.684-4.222,3.062-5.012c0.841-0.482,1.711-0.869,2.481-1.459c0.578-0.442,1.473-1.133,1.682-2.001
			c0.244-1.011-0.287-2.072-0.013-3.184c0.202-0.825,0.438-1.438,0.944-2.136c0.765-1.055,1.931-1.947,2.995-2.345
			c1.069-0.4,2.751,0.061,3.528-1.205c0.792-1.291,0.915-2.104,2.206-2.999c0.76-0.527,1.666-0.93,2.572-1.231
			c1.458-0.486,0.339,1.774,1.997,1.849c1.081,0.049,3.189-0.635,4.989-1.484c1.693-0.798,2.655-2.473,2.278-3.131
			c-0.377-0.658-2.279,2.181-3.782,1.571c-0.156-0.063-0.306-0.147-0.447-0.248c-1.315-0.948-0.63-3.351-0.914-3.353
			c-0.283-0.002-0.187-0.409,0.214-0.514c0.401-0.105,1.369-2.655-0.322-2.3c-0.283,0.06-0.593,0.151-0.91,0.251
			c-1.688,0.533-1.648-0.738,0.036-1.296c2.672-0.884,5.613-0.647,8.479-0.865c1.721-0.131,2.145,0.84,0.864,2.48
			c-1.238,1.582-1.998,2.754-0.843,3.201c1.546,0.6,3.614,0.196,3.529,0.837c-0.055,0.416-0.091,0.8,0.519,0.493
			c0.931-0.469,1.557,1.067,2.45,0.146c0.461-0.552,0.366-1.182,0.181-1.788c-0.285-0.933-0.556-2.579-1.512-2.787
			c-0.956-0.207-0.718-2.694,0.188-4.6c0.096-0.2,0.187-0.399,0.27-0.595c0.824-1.938-1.324-3.975-2.333-5.258
			c-2.973-3.782-1.598-3.721-2.428-8.414c-0.307-1.737-1.804-1.72-3.394-0.543c-0.845,0.626-1.664,1.042-2.197,0.872
			c-1.379-0.44,0.391-4.509-0.462-5.11c-0.467-0.329-1.137-0.538-1.239-1.439c-0.127-1.594-1.512-2.385-3.034-2.368
			c-1.423,0.016-3.411,2.253-3.648,3.77c-0.237,1.516-2.093,3.571-1.818,4.721c0.275,1.151,0.392,3.968-1.059,5.342
			c-0.87,0.824-1.986,1.389-2.758,2.25c-1.361,1.518-0.667,4.409-1.518,5.251c-0.471,0.466-1.099,0.628-1.583,0.202
			c-0.614-0.539-1.413-1.93-1.315-3.034c0.214-2.425,1.444-3.658-0.478-4.546c-2.455-1.133-4.967-2.834-6.732-4.817
			c-0.868-0.975-0.496-1.988-0.463-3.382c0.032-1.378-1.064-1.995,0.906-3.575c1.233-0.989,2.891-1.554,3.902-3.188
			c0.945-1.526-0.556-2.002,0.772-3.181c1.345-1.194,3.557-0.21,4.773-0.489c0.54-0.124,1.17-0.266,1.647-0.946
			c0.779-1.113-0.164-1.342-0.233-1.98c-0.022-0.203,0.364-0.255,0.746-0.256c0.416-0.001,1.047,0.078,1.51-0.135
			c0.287-0.132,0.583-0.336,0.823-0.608c0.26-0.295,0.291-0.556,0.609-0.829c0.298-0.256,0.694-0.321,0.948-0.351
			c0.77-0.09,1.119,0.07,2.037-0.363c0.985-0.464,2.045-0.814,2.942-1.975c0.393-0.509,1.079-1.721,1.053-2.171
			c-0.026-0.442-0.571-0.491-0.372-1.137c0.654-2.126,2.991-1.713,3.796-1.729c1.219-0.025,2.672-0.097,1.804,1.976
			c-0.383,0.917-1.159,3.152,0.374,2.127c0.87-0.581,1.214-0.876,1.503-0.142c0.207,0.525,0.561,1.075,0.092,2.009
			c-0.49,0.974-1.045,1.188-1.59,1.428c-0.958,0.422-2.591,3.316-3.992,3.303c-0.227-0.002-0.456-0.009-0.682-0.004
			c-1.414,0.028-2.106,3.169-0.631,2.813c1.475-0.355,2.81,0.789,3.47,2.059c0.929,1.789,2.485,3.825,3.438,3.996
			c1.428,0.257,1.225-2.981,1.982-3.105c0.456-0.075,0.909-0.154,1.322-0.069c0.231,0.047,0.787-1.743,0.815-1.933
			c0.09-0.611-0.01-1.179-0.203-1.573c-0.426-0.87-1.304-1.113-1.34-2.382c-0.041-1.421,1.603-2.355,2.225-1.746
			c0.296,0.289,0.368,0.872,0.45,1.447c0.132,0.916,0.755,1.534,1.122,1.438c0.234-0.061,0.486-0.184,0.689-0.346
			c0.564-0.448,0.7-1.114,1.182-1.605c0.777-0.792,1.521-0.374,2.273-1.128c0.824-0.826,0.404-1.449,0.072-1.831
			c-0.888-1.02-1.99-1.723-2.847-2.658c-0.177-0.193-0.369-0.334-0.508-0.521c-0.243-0.328-0.073-1.4,0.245-2.155
			c0.194-0.461,0.397-0.922,0.482-1.339c0.144-0.71-0.225-1.174-0.449-1.581c-0.287-0.52-0.62-0.998-1.007-1.407
			c-0.638-0.674-2.411-1.125-2.78-2.286c-0.361-1.138-0.464-2.594-1.428-2.706c-0.115-0.013-0.555,0.259-0.728,0.291
			c-0.267,0.05-0.472,0.001-0.649-0.085c-0.369-0.18-0.525-0.581-0.829-0.831c-0.557-0.456-1.348-0.728-2.536-0.293
			c-0.453,0.166-0.853,0.302-1.227,0.387c-0.651,0.148-1.49-0.03-2.106-0.026c-0.615,0.004-2.14,0.655-3.226,1.286
			c-0.704,0.409-1.398,0.896-1.889,1.446c-0.841,0.941-1.695,2.544-1.045,2.87c0.725,0.364,1.966,0.201,2.795,0.439
			c0.737,0.212,2.608,0.506,1.469,2.198c-0.862,1.28-2.302,0.56-2.876,2.185c-0.186,0.528-0.086,1.028-0.573,1.642
			c-0.354,0.445-1.077,0.949-1.512,1.224c-0.417,0.263-0.994,0.636-1.402,0.8c-0.645,0.258-1.366-0.061-1.085-0.842
			c0.227-0.631,0.973-1.009,1.287-1.642c0.303-0.609,0.006-0.871-0.272-1.11c-0.15-0.129-0.348-0.203-0.543-0.282
			c-0.32-0.131-0.726-0.555-0.853-0.961c-0.079-0.251-0.125-0.526-0.146-0.79c-0.038-0.47-0.191-0.941-0.234-1.456
			c-0.071-0.834,0.743-2.252,1.281-2.6c0.285-0.184,0.6-0.339,0.976-0.59c0.68-0.456,1.515-1.207,2.119-1.807
			c1.42-1.415,2.047-2.929,0.809-3.065c-1.302-0.143-3.422,0.902-4.724,2.698c-0.744,1.025-1.199,2.132-2.195,3.114
			c-0.864,0.851-1.901,1.388-2.713,2.253c-0.816,0.868-0.931,1.685-1.561,2.55c-0.6,0.824-0.748,0.591-1.37,0.811
			c-1.393,0.492-1.761,2.629-3.169,3.341c-0.458,0.232-0.995,0.192-1.365,0.199c-0.827,0.015-1.581-0.109-2.162-0.425
			c-0.184-0.1-0.438-0.221-0.188-0.629c0.363-0.592,1-0.62,1.426-0.812c1.329-0.6,2.89-2.512,3.054-3.633
			c0.108-0.736-0.566-0.846-0.859-1.24c-0.431-0.578-0.568-1.742,0.061-2.973c-2.62,2.527-5.124,5.151-7.516,7.861
			c0.249,0.084,0.434,0.239,0.477,0.531c0.056,0.378-0.205,0.759-0.603,1.249c-0.274,0.338-0.486,0.642-0.681,0.952
			c-0.337,0.534-1.727,2.512-2.293,1.907c-0.14-0.15-0.263-0.345-0.378-0.537c-3.797,4.66-7.286,9.538-10.415,14.621
			c-8.148,13.252-14.002,27.836-17.275,43.03c0.316-0.04,0.708,0.099,1.034,0.537c0.97,1.303,1.06,4.211,2.03,5.522
			c1.615,2.183,3.46,4.874,4.05,7.633c0.386,1.804,0.914,4.475,2.167,5.704c2.448,2.401,5.494,4.509,8.451,4.918
			c3.044,0.421,4.927,6.099,8.011,5.221c0.375-0.107,1.333,2.575,1.475,2.932c0.524,1.319,1.526,2.497,2.455,3.401
			c1.107,1.077,2.277,1.806,3.472,2.581c2.222,1.442,4.823,3.509,3.466,7.056c-0.819,2.141-2.259,4.027-3.34,6.04
			c-1.14,2.123-2.049,4.302-1.369,6.767c0.656,2.374,2.178,4.368,2.873,6.729c0.73,2.48-0.323,5.009,0.38,7.588
			c0.88,3.227,2.99,4.232,5.568,6.02c2.173,1.508,3.318,3.02,4.178,5.547c1.788,5.251,2.913,10.867,3.653,16.353
			c0.93,6.892,1.311,14.09,3.739,20.619c1.193,3.207,2.63,6.223,4.873,8.858c1.436,1.687,3.135,2.144,3.69-0.439
			c0.34-1.582-0.595-3.183-0.852-4.732c-0.265-1.594,0.621-2.638,0.944-4.126c0.267-1.232-0.383-3.347,0.704-4.143
			c1.035-0.758,2.21,0.178,2.996-1.027c0.991-1.518-0.617-2.705-0.6-4.069c0.017-1.392,2.226-0.869,3.187-1.872
			c0.607-0.633,0.609-1.646,1.093-2.349c0.39-0.567,0.753-0.59,1.239-0.95c0.863-0.64,1.468-1.836,1.894-2.805
			c0.746-1.697-0.493-4.13,0.586-5.655c0.762-1.078,2.787-1.935,4.231-2.279c1.129-0.269,1.836-0.184,2.777-1.371
			c1.053-1.33,1.58-3.764,1.538-4.911C197.195,217.786,197.863,216.76,197.835,215.933z M146.955,108.921
			c1.621-0.938,4.647-3.191,5.762-2.21c0.495,0.436,0.777,1.308,1.051,2.207c0.487,1.6,2.491,2.584,3.578,3.461
			c1.086,0.876-0.895,1.668-1.358,2.819c-0.463,1.151-1.426,1.415-1.234,0.755c0.117-0.401,0.16-0.724-0.463-0.62
			c-0.882,0.148-0.548-0.412-0.169-1.028c0.52-0.843-1.435-2.106-2.424-0.365c-0.251,0.442-0.474,0.955-0.692,1.467
			c-0.778,1.829-2.605,1.371-1.811-0.448c0.1-0.23,0.211-0.461,0.327-0.692c0.9-1.78,0.819-4.16-0.737-4.34
			C147.007,109.724,145.212,109.929,146.955,108.921z"/>
		<path id="XMLID_261_" style="opacity:0.1;fill:#FFFFFF;" d="M316.721,51.356c-76.903-47.509-108.445,5.143-74.154,53.462
			c34.291,48.319,106.969,81.378,123.825,60.546C383.249,144.531,373.885,86.671,316.721,51.356z"/>
		<path id="XMLID_260_" style="opacity:0.03;" d="M177.15,214.613c-50.1-71.494-0.274-175.039,66.06-192.586v0
			c-2.633,0.134-5.273,0.319-7.927,0.607c-74.866,8.147-128.973,75.466-120.826,150.332c3.126,28.727,14.957,54.381,32.617,74.65
			c28.285,32.547,71.572,51.162,117.711,46.141c37.829-4.116,70.341-23.345,92.218-51.008
			C331.518,263.106,227.223,286.069,177.15,214.613z"/>
	</g>
</g>
<g id="Line_00000044880755501593185550000003679125505854461618_">
	<g id="Line">
		<g>
			<polygon style="fill:#BA68C8;" points="100.715,228.069 57.823,199.165 58.772,197.755 100.514,225.884 170.932,156.616 
				218.82,184.48 321.094,81.971 376.05,115.167 441.104,50.307 442.303,51.51 376.31,117.31 321.356,84.115 219.097,186.607 
				171.2,158.737 			"/>
		</g>
		<g>
			<path style="fill:#FFFFFF;" d="M61.937,198.46c0,2.01-1.63,3.64-3.64,3.64c-2.01,0-3.64-1.63-3.64-3.64
				c0-2.01,1.63-3.64,3.64-3.64C60.307,194.82,61.937,196.45,61.937,198.46z"/>
			<path style="fill:#BA68C8;" d="M58.297,202.66c-2.315,0-4.2-1.885-4.2-4.2c0-2.315,1.885-4.199,4.2-4.199
				c2.315,0,4.199,1.884,4.199,4.199C62.496,200.775,60.613,202.66,58.297,202.66z M58.297,195.38c-1.699,0-3.081,1.382-3.081,3.08
				c0,1.699,1.382,3.081,3.081,3.081c1.698,0,3.08-1.382,3.08-3.081C61.377,196.762,59.995,195.38,58.297,195.38z"/>
		</g>
		<g>
			<path style="fill:#FFFFFF;" d="M104.257,226.976c0,2.01-1.63,3.64-3.64,3.64c-2.01,0-3.64-1.63-3.64-3.64
				c0-2.01,1.63-3.64,3.64-3.64C102.628,223.336,104.257,224.966,104.257,226.976z"/>
			<path style="fill:#BA68C8;" d="M100.618,231.176c-2.315,0-4.2-1.884-4.2-4.199c0-2.315,1.885-4.2,4.2-4.2s4.199,1.885,4.199,4.2
				C104.817,229.292,102.933,231.176,100.618,231.176z M100.618,223.896c-1.699,0-3.081,1.382-3.081,3.081
				c0,1.698,1.382,3.08,3.081,3.08c1.698,0,3.08-1.382,3.08-3.08C103.698,225.277,102.316,223.896,100.618,223.896z"/>
		</g>
		<g>
			<path style="fill:#FFFFFF;" d="M174.719,157.673c0,2.01-1.63,3.64-3.64,3.64c-2.01,0-3.64-1.63-3.64-3.64s1.63-3.64,3.64-3.64
				C173.09,154.033,174.719,155.662,174.719,157.673z"/>
			<path style="fill:#BA68C8;" d="M171.079,161.872c-2.315,0-4.2-1.884-4.2-4.199c0-2.315,1.885-4.2,4.2-4.2
				c2.316,0,4.199,1.885,4.199,4.2C175.279,159.988,173.395,161.872,171.079,161.872z M171.079,154.592
				c-1.699,0-3.081,1.382-3.081,3.081c0,1.698,1.382,3.08,3.081,3.08c1.698,0,3.08-1.382,3.08-3.08
				C174.16,155.974,172.778,154.592,171.079,154.592z"/>
		</g>
		<g>
			<path style="fill:#FFFFFF;" d="M222.596,185.548c0,2.01-1.63,3.64-3.64,3.64s-3.64-1.63-3.64-3.64s1.63-3.64,3.64-3.64
				S222.596,183.537,222.596,185.548z"/>
			<path style="fill:#BA68C8;" d="M218.956,189.747c-2.315,0-4.2-1.884-4.2-4.199c0-2.315,1.885-4.2,4.2-4.2s4.199,1.885,4.199,4.2
				C223.156,187.863,221.272,189.747,218.956,189.747z M218.956,182.467c-1.699,0-3.081,1.382-3.081,3.081
				c0,1.698,1.382,3.08,3.081,3.08c1.698,0,3.08-1.382,3.08-3.08C222.037,183.849,220.655,182.467,218.956,182.467z"/>
		</g>
		<g>
			<path style="fill:#FFFFFF;" d="M324.876,83.052c0,2.01-1.63,3.64-3.64,3.64s-3.64-1.63-3.64-3.64c0-2.01,1.63-3.64,3.64-3.64
				S324.876,81.042,324.876,83.052z"/>
			<path style="fill:#BA68C8;" d="M321.236,87.252c-2.316,0-4.199-1.885-4.199-4.2c0-2.315,1.884-4.199,4.199-4.199
				c2.315,0,4.2,1.884,4.2,4.199C325.436,85.367,323.551,87.252,321.236,87.252z M321.236,79.972c-1.698,0-3.08,1.382-3.08,3.08
				c0,1.699,1.382,3.081,3.08,3.081c1.699,0,3.081-1.382,3.081-3.081C324.317,81.354,322.935,79.972,321.236,79.972z"/>
		</g>
		<g>
			<circle style="fill:#FFFFFF;" cx="376.185" cy="116.238" r="3.64"/>
			<path style="fill:#BA68C8;" d="M376.185,120.439c-2.315,0-4.2-1.885-4.2-4.2c0-2.316,1.885-4.199,4.2-4.199
				s4.199,1.884,4.199,4.199C380.384,118.554,378.5,120.439,376.185,120.439z M376.185,113.158c-1.699,0-3.081,1.382-3.081,3.08
				c0,1.699,1.382,3.081,3.081,3.081c1.698,0,3.08-1.382,3.08-3.081C379.265,114.54,377.883,113.158,376.185,113.158z"/>
		</g>
		<g>
			<path style="fill:#FFFFFF;" d="M445.343,50.908c0,2.01-1.63,3.64-3.64,3.64s-3.64-1.63-3.64-3.64s1.63-3.64,3.64-3.64
				S445.343,48.898,445.343,50.908z"/>
			<path style="fill:#BA68C8;" d="M441.704,55.107c-2.316,0-4.2-1.884-4.2-4.199c0-2.315,1.885-4.2,4.2-4.2
				c2.315,0,4.199,1.885,4.199,4.2C445.903,53.224,444.019,55.107,441.704,55.107z M441.704,47.827
				c-1.699,0-3.081,1.382-3.081,3.081c0,1.698,1.382,3.08,3.081,3.08c1.698,0,3.08-1.382,3.08-3.08
				C444.784,49.209,443.402,47.827,441.704,47.827z"/>
		</g>
	</g>
</g>
<g id="Shadows">
	
		<ellipse id="Shadow_00000076571701510371935680000001122658329216599954_" style="fill:#E0E0E0;" cx="210.467" cy="432.59" rx="70.596" ry="40.758"/>
	
		<ellipse id="Shadow_00000165199369225425761140000015208606715503688338_" style="fill:#E0E0E0;" cx="307.89" cy="408.945" rx="47.895" ry="27.652"/>
</g>
<g id="Arrows">
	<g id="Arrows_00000137846475929911098540000015753585017917108902_">
		
			<polygon style="fill:none;stroke:#BA68C8;stroke-width:0.9574;stroke-linecap:round;stroke-linejoin:round;stroke-miterlimit:10;" points="
			413.361,382.582 430.605,372.616 455.28,386.863 438.036,396.828 		"/>
		
			<polygon style="fill:none;stroke:#BA68C8;stroke-width:0.9574;stroke-linecap:round;stroke-linejoin:round;stroke-miterlimit:10;" points="
			362.636,350.387 376.356,342.458 395.988,353.793 382.268,361.721 		"/>
		
			<polygon style="fill:none;stroke:#BA68C8;stroke-width:0.9574;stroke-linecap:round;stroke-linejoin:round;stroke-miterlimit:10;" points="
			86.679,382.582 69.435,372.616 44.76,386.863 62.005,396.828 		"/>
		
			<polygon style="fill:none;stroke:#BA68C8;stroke-width:0.9574;stroke-linecap:round;stroke-linejoin:round;stroke-miterlimit:10;" points="
			137.404,350.387 123.684,342.458 104.053,353.793 117.772,361.721 		"/>
		<g id="Arrow_00000005963883070046007240000014659258161575037077_">
			<polygon style="fill:#BA68C8;" points="50.463,386.871 61.965,393.511 80.896,382.581 80.896,146.189 93.517,138.903 
				71.866,122.257 60.363,115.617 37.842,157.766 49.344,164.406 50.464,163.76 			"/>
			<polygon style="opacity:0.8;fill:#FFFFFF;" points="50.463,386.871 61.965,393.511 80.896,382.581 80.896,146.189 
				93.517,138.903 71.866,122.257 60.363,115.617 37.842,157.766 49.344,164.406 50.464,163.76 			"/>
			<polygon id="Down_Arrow_00000114069481163870169580000018170440267448163484_" style="fill:#BA68C8;" points="61.965,393.511 
				80.896,382.581 80.896,146.189 93.517,138.903 71.866,122.257 49.344,164.406 61.965,157.119 			"/>
			<polygon id="Down_Arrow_00000135672998432091491920000014242824878073918637_" style="opacity:0.6;fill:#FFFFFF;" points="
				61.965,393.511 80.896,382.581 80.896,146.189 93.517,138.903 71.866,122.257 49.344,164.406 61.965,157.119 			"/>
			<polygon style="opacity:0.5;fill:#BA68C8;" points="50.463,386.871 61.965,393.511 61.965,157.119 50.464,163.76 			"/>
		</g>
		<g id="Arrow_00000083803453447534196960000008095296929956681089_">
			<polygon style="fill:#BA68C8;" points="109.285,354.068 117.904,359.044 132.091,350.854 132.091,167.837 141.55,162.377 
				125.324,149.902 116.704,144.926 99.826,176.513 108.446,181.489 109.285,181.005 			"/>
			<polygon style="opacity:0.8;fill:#FFFFFF;" points="109.285,354.068 117.904,359.044 132.091,350.854 132.091,167.837 
				141.55,162.377 125.324,149.902 116.704,144.926 99.826,176.513 108.446,181.489 109.285,181.005 			"/>
			<polygon style="opacity:0.5;fill:#BA68C8;" points="109.285,181.005 117.904,176.029 117.904,359.044 109.285,354.068 			"/>
			<polygon id="Down_Arrow_00000042709054273766531880000006715846835446967998_" style="fill:#BA68C8;" points="117.904,359.044 
				132.091,350.854 132.091,167.837 141.55,162.377 125.324,149.902 108.446,181.489 117.904,176.029 			"/>
			<polygon id="Down_Arrow_00000155831422877502841930000000151788932509981312_" style="opacity:0.6;fill:#FFFFFF;" points="
				117.904,359.044 132.091,350.854 132.091,167.837 141.55,162.377 125.324,149.902 108.446,181.489 117.904,176.029 			"/>
		</g>
		<g id="Arrow_00000142169521181380942860000006117065193325268158_">
			<polygon style="fill:#BA68C8;" points="449.537,386.871 438.035,393.511 419.104,382.581 419.104,146.189 406.483,138.903 
				428.134,122.257 439.636,115.617 462.158,157.766 450.656,164.406 449.536,163.76 			"/>
			<polygon style="opacity:0.8;fill:#FFFFFF;" points="449.537,386.871 438.035,393.511 419.104,382.581 419.104,146.189 
				406.483,138.903 428.134,122.257 439.636,115.617 462.158,157.766 450.656,164.406 449.536,163.76 			"/>
			<polygon id="Down_Arrow_00000165207903886610910710000003301555745714036666_" style="fill:#BA68C8;" points="438.035,393.511 
				419.104,382.581 419.104,146.189 406.483,138.903 428.134,122.257 450.656,164.406 438.035,157.119 			"/>
			<polygon id="Down_Arrow_00000151520056378671008010000014564526281453435009_" style="opacity:0.6;fill:#FFFFFF;" points="
				438.035,393.511 419.104,382.581 419.104,146.189 406.483,138.903 428.134,122.257 450.656,164.406 438.035,157.119 			"/>
			<polygon style="opacity:0.5;fill:#BA68C8;" points="449.537,386.871 438.035,393.511 438.035,157.119 449.536,163.76 			"/>
		</g>
		<g id="Arrow_00000119107825616115786260000001351500199337890947_">
			<polygon style="fill:#BA68C8;" points="390.716,354.068 382.096,359.044 367.909,350.854 367.909,167.837 358.45,162.377 
				374.676,149.902 383.296,144.926 400.173,176.513 391.554,181.489 390.715,181.005 			"/>
			<polygon style="opacity:0.8;fill:#FFFFFF;" points="390.716,354.068 382.096,359.044 367.909,350.854 367.909,167.837 
				358.45,162.377 374.676,149.902 383.296,144.926 400.173,176.513 391.554,181.489 390.715,181.005 			"/>
			<polygon style="opacity:0.5;fill:#BA68C8;" points="390.715,181.005 382.096,176.029 382.096,359.044 390.716,354.068 			"/>
			<polygon id="Down_Arrow_00000168834820233045964600000018436818408951529352_" style="fill:#BA68C8;" points="382.096,359.044 
				367.909,350.854 367.909,167.837 358.45,162.377 374.676,149.902 391.554,181.489 382.096,176.029 			"/>
			<polygon id="Down_Arrow_00000088113311209630171910000011367009524393918397_" style="opacity:0.6;fill:#FFFFFF;" points="
				382.096,359.044 367.909,350.854 367.909,167.837 358.45,162.377 374.676,149.902 391.554,181.489 382.096,176.029 			"/>
		</g>
	</g>
</g>
<g id="Chess_piece">
	<g id="Chess_piece_6_">
		<g>
			<path style="fill:#37474F;" d="M332.234,384.118c-13.429-7.754-35.204-7.754-48.636-0.001
				c-6.717,3.877-10.048,8.958-10.038,14.04c0.002,0.972,0.004,4.83,0,5.795c-0.019,5.088,3.311,10.176,10.035,14.058
				c13.431,7.754,35.205,7.755,48.635,0.001c6.727-3.883,10.056-8.973,10.037-14.062c-0.004-0.965-0.002-4.821,0-5.793
				C342.279,393.076,338.949,387.996,332.234,384.118z"/>
			<path style="opacity:0.2;" d="M332.234,384.118c-13.429-7.754-35.204-7.754-48.636-0.001c-6.717,3.877-10.048,8.958-10.038,14.04
				c0.002,0.972,0.004,4.83,0,5.795c-0.019,5.088,3.311,10.176,10.035,14.058c13.431,7.754,35.205,7.755,48.635,0.001
				c6.727-3.883,10.056-8.973,10.037-14.062c-0.004-0.965-0.002-4.821,0-5.793C342.279,393.076,338.949,387.996,332.234,384.118z"/>
			<path style="opacity:0.2;" d="M292.03,380.545c-3.034,0.913-5.884,2.102-8.431,3.572c-6.717,3.877-10.048,8.958-10.038,14.04
				c0.002,0.972,0.004,4.83,0,5.795c-0.019,5.088,3.31,10.176,10.035,14.058c2.548,1.471,5.399,2.66,8.434,3.573V380.545z"/>
			<path style="fill:#37474F;" d="M283.599,384.117c13.432-7.753,35.207-7.753,48.636,0.001
				c13.429,7.754,13.428,20.325-0.003,28.079c-13.43,7.753-35.205,7.753-48.636-0.001
				C270.165,404.441,270.167,391.87,283.599,384.117z"/>
			<path style="opacity:0.4;" d="M283.599,384.117c13.432-7.753,35.207-7.753,48.636,0.001c13.429,7.754,13.428,20.325-0.003,28.079
				c-13.43,7.753-35.205,7.753-48.636-0.001C270.165,404.441,270.167,391.87,283.599,384.117z"/>
		</g>
		<g>
			<path style="fill:#37474F;" d="M307.89,370.709c-32.875,0-37.134,14.14-37.134,21.439c0,7.3,4.443,13.358,13.601,18.647h0.05
				c6.253,3.611,14.602,5.599,23.507,5.599c8.906,0,17.255-1.988,23.508-5.599c9.159-5.288,13.601-11.347,13.601-18.647
				C345.023,384.848,340.765,370.709,307.89,370.709z"/>
			<path style="opacity:0.1;fill:#FFFFFF;" d="M320.164,400.339c-0.205,0.029-0.409,0.057-0.609,0.085
				c-2.45,0.331-6.945,0.051-8.928,1.963c-3.343,3.224,1.265,6.007,4.152,6.908c4.597,1.435,10.209,0.723,14.512-1.329
				c3.622-1.727,7.449-4.558,9.515-8.091c0.891-1.524,2.582-5.983,0.341-7.016c-1.397-0.643-2.504-0.052-3.557,0.882
				c-1.115,0.989-2.248,1.636-3.486,2.455c-1.106,0.732-2.192,1.369-3.401,1.933C326.171,399.307,322.984,399.935,320.164,400.339z"
				/>
			<path style="opacity:0.1;" d="M303.894,396.091c19.393,1.745,32.999-5.991,37.779-14.296
				c-4.264-5.785-13.655-11.086-33.783-11.086c-32.875,0-37.134,14.14-37.134,21.439c0,7.3,4.443,13.358,13.601,18.647h0.05
				c6.253,3.611,14.602,5.599,23.507,5.599c8.906,0,17.255-1.988,23.508-5.599c2.122-1.225,3.98-2.494,5.599-3.808
				c-6.92,4.811-18.356,8.386-33.127,6.239C289.112,411.078,283.661,394.27,303.894,396.091z"/>
			<path style="opacity:0.1;" d="M292.062,390.055l-1.801-17.557c-16.893,4.035-19.505,13.936-19.505,19.649
				c0,7.3,4.443,13.358,13.601,18.647h0.05c0.287,0.166,0.6,0.31,0.897,0.469C275.15,404.717,281.409,386.95,292.062,390.055z"/>
		</g>
		<g>
			<g>
				<path style="fill:#37474F;" d="M332.169,352.142c-13.393-7.733-35.109-7.734-48.505-0.002
					c-6.699,3.867-10.021,8.934-10.011,14.002c0.002,0.97,0.004,6.626,0,7.588c-0.019,5.074,3.302,10.148,10.009,14.02
					c13.394,7.733,35.11,7.734,48.504,0.001c6.708-3.872,10.029-8.948,10.01-14.024c-0.004-0.962-0.002-6.617,0-7.586
					C342.186,361.075,338.865,356.009,332.169,352.142z"/>
				<path style="opacity:0.2;" d="M283.662,387.751c2.261,1.306,4.774,2.372,7.43,3.237v-42.082
					c-2.655,0.864-5.167,1.93-7.428,3.235c-6.699,3.867-10.021,8.934-10.011,14.002c0.002,0.97,0.004,6.626,0,7.589
					C273.635,378.805,276.955,383.879,283.662,387.751z"/>
			</g>
			<path style="fill:#455A64;" d="M283.664,352.14c13.395-7.732,35.111-7.732,48.504,0.001c13.392,7.733,13.391,20.27-0.003,28.003
				c-13.394,7.733-35.11,7.732-48.504-0.002C270.267,372.41,270.269,359.872,283.664,352.14z"/>
		</g>
		<g>
			<path style="fill:#455A64;" d="M338.985,360.198h0.039c-4.277-8.796-15.07-35.259-15.07-78.644h-32.066
				c0,43.385-10.792,69.848-15.07,78.644h0.025c-2.619,5.712,0.158,12,8.404,16.465c12.518,6.777,32.814,6.778,45.332,0.001
				C338.827,372.2,341.604,365.91,338.985,360.198z"/>
			<path style="opacity:0.1;fill:#FFFFFF;" d="M322.841,310.197c1.505,14.178,4.792,28.282,8.759,40.357
				c2.789,8.486,6.88,14.283,1.514,19.572c-5.366,5.289-18.468,6.913-18.468,6.913s7.431-2.569,12.913-7.673
				c5.482-5.104,2.196-12.504,0.567-18.812C325.479,340.303,321.91,324.33,322.841,310.197z"/>
			<path style="opacity:0.1;" d="M312.099,381.6c-2.743-1.074-8.399-3.017-4.185-24.022c4.202-20.946,4.125-54.077,4.023-76.024
				h-20.049c0,43.385-10.792,69.848-15.07,78.644h0.025c-2.619,5.712,0.158,12,8.404,16.465
				C292.575,380.631,302.562,382.276,312.099,381.6z"/>
			<path style="opacity:0.1;" d="M293.427,346.759c3.74-14.06,4.868-42.986,4.953-65.205h-6.492
				c0,43.385-10.792,69.848-15.07,78.644h0.025c-2.619,5.712,0.158,12,8.404,16.465c2.118,1.146,4.475,2.076,6.961,2.834
				C281.769,373.141,289.538,361.377,293.427,346.759z"/>
		</g>
		<g>
			<g>
				<path style="fill:#37474F;" d="M325.754,258.093c-9.851-5.687-25.823-5.688-35.676-0.001c-4.927,2.844-7.37,6.571-7.363,10.299
					c0.001,0.713,0.003,8.442,0,9.15c-0.014,3.732,2.428,7.464,7.361,10.312c9.852,5.688,25.824,5.688,35.675,0.001
					c4.934-2.848,7.376-6.582,7.362-10.314c-0.003-0.708-0.001-8.436,0-9.149C333.121,264.664,330.679,260.937,325.754,258.093z"/>
				<path style="opacity:0.2;" d="M304.941,253.94c-5.431,0.37-10.695,1.746-14.863,4.152c-4.927,2.844-7.37,6.571-7.363,10.299
					c0.001,0.713,0.003,8.442,0,9.15c-0.014,3.732,2.428,7.464,7.361,10.312c4.168,2.406,9.433,3.782,14.864,4.153V253.94z"/>
			</g>
			<path style="fill:#455A64;" d="M290.078,258.092c9.853-5.687,25.825-5.687,35.675,0.001c9.85,5.688,9.849,14.909-0.002,20.596
				c-9.851,5.688-25.824,5.687-35.675-0.001C280.225,273.001,280.226,263.779,290.078,258.092z"/>
		</g>
		<g>
			<path style="fill:#37474F;" d="M329.097,223.119c-11.697-6.754-30.663-6.754-42.363-0.001c-6.725,3.882-9.563,9.15-8.557,14.211
				h-0.021l7.511,30.01h0.02c0.581,2.772,2.695,5.457,6.38,7.585c8.752,5.053,22.941,5.053,31.692,0.001
				c3.686-2.128,5.799-4.813,6.381-7.586h0.02l7.512-30.01h-0.022C338.657,232.268,335.821,227.001,329.097,223.119z"/>
			<path style="fill:#455A64;" d="M331.021,224.366c-1.629,13.625-5.144,34.747-7.151,50.489c3.614-2.117,5.695-4.774,6.271-7.516
				h0.02l7.512-30.011h-0.021C338.554,232.788,336.337,228.09,331.021,224.366z"/>
			<path style="opacity:0.1;" d="M293.421,220.224c-2.394,0.765-4.655,1.721-6.686,2.893c-6.725,3.882-9.563,9.15-8.557,14.211
				h-0.021l7.511,30.01h0.02c0.581,2.772,2.695,5.457,6.38,7.585c1.876,1.084,4.011,1.92,6.28,2.539L293.421,220.224z"/>
			<path style="fill:#455A64;" d="M286.735,223.118c11.7-6.753,30.666-6.753,42.363,0.001c11.697,6.754,11.695,17.704-0.002,24.457
				c-11.698,6.753-30.664,6.753-42.363-0.001C275.034,240.82,275.035,229.871,286.735,223.118z"/>
		</g>
		<g>
			<path style="fill:#37474F;" d="M325.653,244.074c-9.795,5.656-25.677,5.656-35.475,0.001c-5.632-3.251-8.008-7.662-7.165-11.9
				h-0.018l6.29-23.464h0.017c0.487-2.321,2.257-4.57,5.342-6.351c7.329-4.231,19.211-4.232,26.539-0.001
				c3.086,1.782,4.856,4.031,5.343,6.352h0.017l6.29,23.464h-0.018C333.659,236.412,331.283,240.823,325.653,244.074z"/>
			<path style="fill:#455A64;" d="M327.264,243.028c-1.364-11.409-4.307-27.43-5.988-40.612c3.026,1.773,4.769,3.997,5.251,6.294
				h0.017l6.29,23.464h-0.018C333.572,235.976,331.715,239.911,327.264,243.028z"/>
			<path style="opacity:0.1;" d="M295.777,246.497c-2.005-0.641-3.898-1.441-5.599-2.423c-5.632-3.251-8.008-7.662-7.165-11.9
				h-0.018l6.29-23.464h0.017c0.487-2.321,2.257-4.57,5.342-6.351c1.571-0.907,3.359-1.608,5.259-2.126L295.777,246.497z"/>
			<path style="fill:#455A64;" d="M294.632,217.699c7.337,4.235,19.231,4.235,26.566-0.001c7.335-4.236,7.335-11.102-0.001-15.337
				c-7.336-4.235-19.23-4.235-26.566,0.001C287.295,206.598,287.296,213.464,294.632,217.699z"/>
		</g>
		<g>
			<path style="fill:#37474F;" d="M322.23,203.72l0.021,0c-0.098-0.098-0.207-0.183-0.306-0.278
				c-0.105-0.097-0.206-0.194-0.317-0.288c-3.611-3.325-8.417-5.372-13.713-5.372c-5.292,0-10.095,2.045-13.705,5.366
				c-0.149,0.127-0.282,0.257-0.42,0.387c-0.105,0.102-0.22,0.193-0.323,0.298l0.018,0c-3.536,3.64-2.638,8.328,2.724,11.424
				c6.464,3.732,16.944,3.732,23.408,0.001C325.038,212.128,325.896,207.375,322.23,203.72z"/>
			<path style="opacity:0.2;fill:#FFFFFF;" d="M315.239,200.038c3.06,1.447,5.843,3.617,6.677,4.841
				c0.835,1.224,1.558,4.189-0.445,7.13c0.501-1.844,0.445-4.849-0.723-6.685C319.579,203.488,317.799,201.707,315.239,200.038z"/>
			<path style="opacity:0.1;" d="M296.672,211.743c-4.063-3.808-2.017-8.094,0.941-11.11c-1.218,0.726-2.364,1.56-3.402,2.515
				c-0.149,0.127-0.282,0.257-0.42,0.387c-0.105,0.102-0.22,0.193-0.323,0.298l0.018,0c-3.536,3.64-2.638,8.328,2.724,11.424
				c6.464,3.732,16.944,3.732,23.408,0.001c1.139-0.658,2.064-1.389,2.8-2.165c-0.223,0.198-2.071,1.882-8.34,2.527
				C304.418,216.613,299.772,214.648,296.672,211.743z"/>
		</g>
		<g>
			<polygon style="fill:#455A64;" points="315.726,172.577 315.726,181.596 323.537,177.086 323.537,186.106 315.726,190.616 
				315.726,204.834 307.914,209.344 307.914,195.126 300.103,199.635 300.103,190.616 307.914,186.106 307.915,177.086 			"/>
			<polygon style="fill:#263238;" points="307.914,209.344 300.103,204.834 300.103,199.635 307.914,195.126 			"/>
			<polygon style="fill:#37474F;" points="300.103,190.616 292.292,186.106 292.292,195.126 300.103,199.635 			"/>
			<polygon style="fill:#455A64;" points="307.914,186.106 300.103,181.596 292.292,186.106 300.103,190.616 			"/>
			<polygon style="opacity:0.2;fill:#FFFFFF;" points="307.914,186.106 300.103,181.596 292.292,186.106 300.103,190.616 			"/>
			<polygon style="fill:#37474F;" points="307.915,177.086 300.103,172.577 300.103,181.596 307.914,186.106 			"/>
			<polygon style="fill:#455A64;" points="315.726,172.577 307.915,168.067 300.103,172.577 307.915,177.086 			"/>
			<polygon style="opacity:0.2;fill:#FFFFFF;" points="315.726,172.577 307.915,168.067 300.103,172.577 307.915,177.086 			"/>
			<polygon style="fill:#455A64;" points="323.537,177.086 315.726,172.577 315.726,181.596 			"/>
			<polygon style="opacity:0.2;fill:#FFFFFF;" points="323.537,177.086 315.726,172.577 315.726,181.596 			"/>
		</g>
	</g>
</g>
<g id="Character">
	<g id="Character_00000029757546091565209520000010007440911993642677_">
		<g id="Bottom_00000049941934158024659760000002095283189360381366_">
			<g>
				<g id="XMLID_00000145762784649643096700000005088642173390456209_">
					<path style="fill:#37474F;" d="M165.406,397.456c-0.593,2.789-1.654,6.011-2.624,11.733c-0.951,5.61,0.303,5.985-3.867,20.267
						c-2.503,8.573-2.163,12.017,3.067,19.426c5.598,7.931,11.665,6.507,15.797-2.039c3.531-7.303,3.409-10.74,3.595-18.39
						c0.186-7.649,0.317-9.878,0.812-15.935c0.437-5.339,0.064-9.006,0.498-13.094L165.406,397.456z"/>
				</g>
				<g>
					<path style="fill:#FFA8A7;" d="M163.147,418.373c1.249-7.388,1.676-15.059,2.183-20.061
						c1.137-11.203-0.691-33.449,1.332-50.288l27.791,0.912c-1.125,6.557-8.477,33.063-11.805,50.958c0,0-1.702,24.355-3.55,35.052
						c-0.233,1.35-1.739,2.143-2.989,1.521c-3.909-1.946-9.392-2.306-13.153-1.167c-1.406,0.426-2.824-0.593-2.766-2.033
						C160.349,429.298,162.21,423.915,163.147,418.373z"/>
				</g>
			</g>
			<g>
				<g>
					<path style="fill:#FFA8A7;" d="M246.52,354.027c-2.541,28.49-2.434,39.854-1.755,45.935c0.68,6.081,1.796,7.541,4.104,12.047
						c1.805,3.526,4.216,6.777,6.61,9.92c2.462,3.233,5.594,5.759,7.962,9.114c0.498,0.705,0.995,1.528,0.829,2.376
						c-0.114,0.581-0.53,1.061-0.997,1.424c-1.643,1.275-3.89,1.357-5.97,1.326c-4.548-0.068-9.092-0.419-13.596-1.048
						c-1.827-0.255-3.7-0.575-5.276-1.534c-1.832-1.115-3.079-2.99-3.961-4.944c-0.882-1.955-1.455-4.035-2.295-6.008
						c-2.469-5.799-7.081-10.355-11.018-15.276c-1.458-1.822-2.91-4.044-2.387-6.318c0.213-0.925,0.737-1.742,1.252-2.539
						c1.726-2.67,3.839-5.285,4.852-8.312c0.929-2.773-4.749-29.594-5.211-36.653L246.52,354.027z"/>
				</g>
				<g>
					<g>
						<path style="fill:#263238;" d="M218.751,406.071c0.358,2.273,2.275,4.886,3.065,8.436c0.789,3.549,1.377,7.246,1.518,12.305
							c0.141,5.059,0.161,5.778,0.161,5.778l1.604-0.045c0,0-0.204-7.312-0.294-10.521c-0.09-3.209,0.758-5.939,2.317-6.328
							C227.122,415.696,226.512,405.853,218.751,406.071z"/>
					</g>
					<g>
						<path style="fill:#37474F;" d="M224.099,390.254c-0.891,2.73-4.156,6.692-5.505,9.327c-0.781,1.526-1.002,3.137-0.98,4.456
							c0.022,1.29,0.614,2.501,1.603,3.35c1.415,1.213,3.69,3.251,5.264,5.093c2.094,2.449,6.092,8.228,7.341,12.396
							c1.25,4.168,2.043,7.862,5.871,9.746c2.984,1.469,14.99,3.066,21.023,3.093c8.233,0.036,10.144-3.947,6.905-6.853
							c-3.239-2.906-8.745-7.881-9.722-8.489c0,0-3.728-0.399-7.571,1.485c-4.486,2.199-5.808,4.895-10.764,2.819
							c-4.487-1.88-6.663-9.682-6.92-21.073C230.351,392.669,224.099,390.254,224.099,390.254z"/>
					</g>
				</g>
			</g>
			<g>
				<path style="fill:#37474F;" d="M182.763,192.84c-11.703,19.768-12.467,37.623-12.811,62.497
					c-0.514,37.118,0.084,46.536-0.156,51.008c-0.241,4.471-4.675,11.061-5.642,31.883c-1.192,25.665,1.095,50.386,1.095,50.386
					s0.226,3.74,8.879,5.092c7.714,1.205,10.968-1.828,10.968-1.828s13.494-43.753,16.725-56.966
					c3.231-13.213,12.165-56.692,12.165-56.692l4.331,35.511c0,0-2.63,12.113-0.67,31.491c1.96,19.378,5.987,40.02,5.987,40.02
					s3.586,2.257,10.232,2.578c8.197,0.395,11.468-2.092,11.468-2.092s8.294-58.916,8.76-80.823
					c0.466-21.908,4.336-68.59-3.186-112.063H182.763z"/>
				<path style="fill:#263238;" d="M221.824,236.239l-7.838,41.98l4.331,35.511l-1.396-35.923l6.938-34.435
					c5.31-1.154,17.464-7.233,20.96-16.21C236.495,235.504,221.824,236.239,221.824,236.239z M197.658,211.087
					c1.008-3.52,2.067-7.019,3.249-10.538c-2.055,3.101-3.622,6.501-4.97,9.957c-1.359,3.458-2.441,7.012-3.395,10.592
					c-0.914,3.591-1.685,7.215-2.24,10.878c-0.565,3.656-0.971,7.351-0.968,11.069c0.961-3.585,1.86-7.145,2.755-10.707
					c0.912-3.556,1.771-7.118,2.713-10.655C195.701,218.135,196.671,214.61,197.658,211.087z M192.409,208.319
					c1.238-2.136,2.483-4.277,3.627-6.533c-1.907,1.663-3.586,3.539-5.132,5.515c-1.558,1.97-2.938,4.074-4.209,6.242
					c-1.233,2.191-2.358,4.451-3.237,6.816c-0.89,2.355-1.587,4.804-1.854,7.323l3.512-6.564c1.189-2.15,2.367-4.296,3.604-6.413
					C189.92,212.566,191.183,210.461,192.409,208.319z M185.017,348.893c-2.296,11.365-4.443,22.761-6.443,34.183
					c2.889-11.237,5.631-22.501,8.224-33.795c2.626-11.298,5.113-22.576,7.585-33.947c2.327-11.403,3.982-22.907,5.345-34.426
					c1.389-11.518,2.469-23.063,3.415-34.623c-1.842,11.452-3.523,22.924-5.214,34.381c-1.731,11.45-3.478,22.892-5.833,34.196
					C189.684,326.151,187.278,337.532,185.017,348.893z M246.15,292.539c0.123,5.03,0.314,10.088,0.125,15.056
					c-0.209,4.989-0.623,10.037-0.984,15.061l-1.083,15.099c-0.73,10.068-1.349,20.148-1.845,30.241
					c1.4-10.009,2.626-20.036,3.661-30.082c1.04-10.057,2.026-20.075,2.584-30.232c0.186-10.214-0.466-20.266-1.155-30.36
					c-0.719-10.08-1.717-20.142-3.061-30.159l1.248,30.26C245.812,282.463,246.028,287.501,246.15,292.539z"/>
			</g>
		</g>
		<g id="Top_00000087383512551813042910000004894693951241727156_">
			<g id="Head_00000163761751810769476060000018086820715310075008_">
				<g>
					<path style="fill:#263238;" d="M234.521,60.956c-4.213-3.628-9.533-5.995-15.042-6.901c-7.385-1.214-15.062,0.079-21.951,3.004
						c-2.846,1.208-5.61,2.715-7.851,4.845c-2.638,2.507-4.895,6.393-4.348,10.092c0.004,0.026-1.749,0.581-3.107,4.181
						c-2.367,6.274-1.913,13.087-1.843,19.642c0.048,4.475-0.358,9.153-2.697,12.969c-0.079,0.13-0.164,0.273-0.141,0.423
						c0.023,0.141,0.135,0.248,0.242,0.341c2.452,2.147,5.594,3.493,8.84,3.789c0.229,0.021,0.466,0.035,0.681-0.046
						c0.284-0.107,0.481-0.362,0.655-0.61c1.13-1.618,1.9-3.486,2.236-5.431c0.272,2.05,0.155,4.15-0.343,6.157
						c-0.052,0.209-0.104,0.445,0.012,0.626c0.098,0.154,0.287,0.218,0.461,0.272c10.745,3.261,21.871,2.344,32.859,1.298
						c1.919-0.183,3.82-0.54,5.68-1.04c0.838-0.218,1.665-0.48,2.474-0.79c0.733-0.281,1.524-0.509,2.208-0.896
						c0.052-0.03,0.108-0.064,0.129-0.12c0.025-0.064-0.001-0.136-0.027-0.2c-0.726-1.789-1.249-3.659-1.558-5.564
						c0.855,1.239,1.828,2.396,2.903,3.45c0.424,0.416,0.837,0.842,1.455,0.591c1.944-0.789,3.759-1.896,5.35-3.265
						c0.189-0.162,0.391-0.37,0.363-0.617c-0.02-0.174-0.151-0.312-0.274-0.436c-1.03-1.037-2.034-2.099-3.012-3.186
						c-0.753-0.837-1.49-1.689-2.141-2.608c-1.526-2.158-2.529-4.625-3.405-7.103c-0.413-1.169-0.71-2.2-0.822-3.433
						c-0.117-1.286-0.215-2.573-0.346-3.858c2.188-1.218,4.671-2.827,5.714-5.161c0.587-1.313,1.551-4.068,0.92-5.499
						c0.832,1.888,1.234,3.964,1.167,6.025c1.46-3.487,2.302-7.394,1.368-11.056c-0.535-2.096-1.627-4.015-2.926-5.745
						C237.263,63.574,235.956,62.192,234.521,60.956z"/>
				</g>
				<path style="fill:#FFA8A7;" d="M222.985,120.382c0,0-1.489-1.74-3.06-1.926c-1.046-0.158-1.144-0.692-1.259-2.248
					c-0.115-1.556-0.26-3.524-0.26-3.524c3.924,0.112,8.093-1.17,10.776-3.567c4.051-3.62,4.739-9.486,4.64-17.694
					c-0.065-5.369-1.541-7.759-1.482-8.901c0.352-6.797-0.189-7.998-1.813-11.49c-2.907-5.558-12.019-6.438-15.033-0.399
					c-8.931-6.798-19.348,1.419-16.198,11.786c1.298,8.63-1.359,9.092-3.042,9.167c-2.552-5.361-8.135-5.214-10.444-1.702
					c-2.088,3.177-1.973,8.029,2.182,12.405c4.048,4.262,8.461,1.436,8.507,0.562c0,0,0.79,11.647,0.908,13.972
					c0.118,2.324,0.093,2.597-1.969,3.45c-1.792,0.741-6.983,2.707-6.983,2.707s2.788,1.848,3.247,2.338
					c1.056,1.204,2.615,2.256,6.532,6.777c9.882,3.574,21.688,8.575,28.684,12.637c2.258-5.806,4.297-15.254,4.297-15.254
					C227.481,124.207,222.985,120.382,222.985,120.382z"/>
				<path style="fill:#BA68C8;" d="M190.337,100.338c0.004,1.135,0.927,2.053,2.063,2.049c1.135-0.004,2.053-0.927,2.049-2.063
					c-0.004-1.136-0.928-2.053-2.063-2.049C191.251,98.278,190.333,99.202,190.337,100.338z"/>
				<g>
					<g id="XMLID_00000156571994557279475450000009333563998782357889_">
						<path id="XMLID_00000103260925295879103870000015563022714110846626_" style="fill:#B16668;" d="M214.628,97.105l6.625,1.686
							c-0.429,1.892-2.26,3.049-4.088,2.584C215.335,100.91,214.199,98.999,214.628,97.105z"/>
						<path style="fill:#F28F8F;" d="M215.131,98.584c1.817-0.153,3.44,1.014,3.927,2.702c-0.59,0.208-1.241,0.256-1.894,0.09
							c-1.313-0.334-2.257-1.417-2.534-2.699C214.796,98.64,214.958,98.598,215.131,98.584z"/>
					</g>
					<g>
						<path id="XMLID_00000120534377107760454940000004914486908146993573_" style="fill:#263238;" d="M229.901,79.827l-5.087-1.314
							c0.313-1.43,1.705-2.294,3.11-1.931C229.328,76.945,230.214,78.398,229.901,79.827z"/>
						<path id="XMLID_00000168808729749947256710000005864935665011299500_" style="fill:#263238;" d="M206.27,81.144l4.846-2.196
							c-0.561-1.372-2.1-1.992-3.438-1.385C206.34,78.17,205.709,79.774,206.27,81.144z"/>
						<path id="XMLID_00000058553793452327504880000014810833384624626871_" style="fill:#263238;" d="M224.414,84.35
							c-0.021,1.173,0.925,2.165,2.112,2.217c1.186,0.052,2.164-0.857,2.184-2.029c0.02-1.173-0.926-2.165-2.111-2.217
							C225.412,82.269,224.433,83.177,224.414,84.35z"/>
						<path id="XMLID_00000115492707336951357640000007638032367331571882_" style="fill:#263238;" d="M208.275,84.992
							c-0.021,1.197,0.944,2.21,2.155,2.264c1.211,0.053,2.209-0.874,2.229-2.071c0.021-1.197-0.944-2.21-2.155-2.263
							C209.294,82.869,208.295,83.796,208.275,84.992z"/>
					</g>
					<g id="XMLID_00000164486335104312325010000011386013229482546103_">
						<path id="XMLID_00000100384325781180889380000009303165164646949251_" style="fill:#F28F8F;" d="M218.406,112.684
							c-8.362-0.344-15.898-2.811-20.197-10.297c0,0,0,5.115,6.239,9.171c6.579,4.277,14.132,3.566,14.132,3.566L218.406,112.684z"
							/>
					</g>
					<g>
						<polygon style="fill:#F28F8F;" points="226.902,91.558 219.405,94.818 217.582,80.503 						"/>
					</g>
				</g>
			</g>
			<g id="Chest_00000060029271272935323950000000378758204884120236_">
				<g>
					<path style="fill:#BA68C8;" d="M226.504,119.184c9.48,1.057,16.994,4.716,20.527,8.947c5.117,6.128,7.037,9.701,12.732,20.751
						c8.651,16.787,13.684,31.846,11.099,36.979c-2.611,5.183-8.369,6.222-14.705,5.917l-9.569-19.175L226.504,119.184z"/>
				</g>
				<path style="opacity:0.2;" d="M226.504,119.184c9.48,1.057,16.994,4.716,20.527,8.947c5.117,6.128,7.037,9.701,12.732,20.751
					c8.651,16.787,13.684,31.846,11.099,36.979c-2.611,5.183-8.369,6.222-14.705,5.917l-9.569-19.175L226.504,119.184z"/>
				<path style="opacity:0.2;" d="M255.712,170.06c6.259-0.574,11.673,3.937,11.673,3.937s-3.507-6.802-17.384-8.311L255.712,170.06
					z"/>
				<g>
					<path style="fill:#FFFFFF;" d="M246.199,179.264c-0.135-3.577-0.185-8.661,0.29-13.209c0,0,2.39-4.522,2.503-11.81
						c0.118-7.641-3.234-11.186-11.119-21.045c-7.189-8.989-12.991-13.716-12.991-13.716l-5.468-1.186c0,0,5.445,14.005,2.941,18.73
						c-13.727-3.36-25.677-10.91-30.182-14.724l-10.196,3.863c0,0-7.422,11.301-4.945,22.392c1.34,6.003,4.033,16.175,6.221,24.245
						c2.119,7.816,1.207,16.109-2.568,23.319c-0.345,0.659-0.69,1.32-1.029,1.971c-3.212,6.178-5.266,13.957-5.266,13.957
						s18.151,11.208,48.09,9.41c24.55-1.475,29.89-8.878,29.89-8.878l-5.177-25.108
						C246.636,184.766,246.303,182.024,246.199,179.264z"/>
				</g>
				<g>
					<path style="fill:#BA68C8;" d="M196.969,119.418c0,0,10.803,22.042,14.673,33.529c3.869,11.487,2.237,20.78,1.395,41.747
						c-0.649,16.146-1.881,40.507-1.881,40.507s-31.67,0.28-41.726-13.131c2.389-8.073,10.055-26.942,12.026-32.101
						c1.971-5.159,0.833-9.65-2.838-21.398c-3.67-11.747-9.269-18.09-9.323-26.842c-0.054-8.752,7.293-14,9.563-15.562
						L196.969,119.418z"/>
					<path style="fill:#BA68C8;" d="M220.839,120.609c0,0,21.492,19.216,23.493,39.841c2,20.625,4.439,65.855,4.439,65.855
						s2.312-1.094,6.731-5.994c-1.186-9.359-3.943-46.433-3.139-50.703c0.804-4.27,5.357-14.731-4.829-29.174
						c-8.96-12.704-21.03-21.25-21.03-21.25l-7.347-1.174C219.295,118.782,219.622,119.491,220.839,120.609z"/>
				</g>
			</g>
			<g>
				<g>
					<path style="fill:#FFA8A7;" d="M264.389,162.146c-1.54-1.209-2.828-2.34-3.921-2.659c-1.545-0.451-5.01-1.214-5.01-1.214
						s4.427-1.009,5.639-2.354c1.379-1.53,1.451-3.046,0.041-2.802c-2.627,0.454-5.347,1.145-8.199,1.994
						c-2.853,0.85-3.213,1.155-5.585,3.84c-2.294,2.596-6.902,7.044-10.378,10.573l-0.992,1.568h1.373l10.233-0.289
						c0,0,3.072-0.983,4.774-1.195c1.702-0.211,4.797,1.062,6.015,0.78c1.219-0.281,2.161-1.543,1.558-1.934
						c-0.603-0.391-3.303-1.54-4.82-1.802c-1.517-0.262-4.144-0.55-4.144-0.55l2.577-0.975l4.324,0.247c0,0,1.888,0.787,3.089,1.173
						c1.201,0.386,2.46,0.129,2.818-0.589c0.199-0.399-0.615-1.113-1.173-1.731c0.833,0.512,2.158,0.417,2.574,0.122
						C265.751,163.944,265.929,163.355,264.389,162.146z"/>
					<path style="fill:#F28F8F;" d="M253.686,169.658c-2.994-0.497-4.295-0.607-5.769-0.473c-1.552,0.142-6.931,0.056-10.559-0.047
						c-0.125,0.127-0.259,0.26-0.382,0.385l-0.992,1.568h1.373l10.233-0.289h0h0c0.003-0.001,3.072-0.984,4.774-1.195
						c0.251-0.031,0.538-0.023,0.839,0c0.084,0.005,0.229,0.019,0.473,0.053c0.003,0,0.005,0.001,0.008,0.001L253.686,169.658z"/>
					<path style="fill:#F28F8F;" d="M246.128,167.867c0.847-0.309,1.577-0.794,2.36-1.126c0.379-0.192,0.779-0.328,1.19-0.435
						c0.411-0.108,0.842-0.161,1.293-0.204l1.529-0.579c-0.462,0.045-2.494,0-4.185,0.796
						C247.503,166.723,246.764,167.258,246.128,167.867z M247.031,161.258c2.715-1.286,5.288-3.122,8.427-2.986
						C252.332,157.454,249.375,159.399,247.031,161.258z M254.809,160.96c-2.885-0.418-5.52,1.209-7.955,2.52
						c1.933-0.755,3.829-1.709,5.871-2.077c2.055-0.225,4.093,0.389,6.069,0.955c1.399,0.311,2.587,0.902,3.699,1.8
						C260.531,162.066,257.539,161.469,254.809,160.96z"/>
				</g>
				<g>
					<g>
						<path style="fill:#FFA8A7;" d="M197.99,175.751c2.291-0.234,5.865-0.555,10.808-0.874c4.262-0.275,22.304-2.876,26.577-2.951
							l13.762,10.39c-3.936,2.055-14.475,5.487-19.921,7.05c-7.787,2.235-24.219,8.371-24.219,8.371
							C205.439,191.151,201.818,179.914,197.99,175.751z"/>
						<path style="fill:#F28F8F;" d="M235.375,171.925l13.762,10.39c-3.936,2.055-14.475,5.487-19.921,7.05
							c-1.648,0.473-3.358,0.962-5.092,1.454c-6.832-2.883-15.366-7.963-23.475-11.263c0,0-0.067-0.065-0.176-0.17
							c-0.767-1.426-1.604-2.678-2.484-3.635c2.291-0.234,5.865-0.555,10.808-0.874C213.059,174.601,231.101,172,235.375,171.925z"
							/>
					</g>
					<g>
						<path style="fill:#BA68C8;" d="M164.655,156.849c-2.289-14.061-1.614-25.894,14.203-30.683
							c6.759,5.302,9.227,14.892,11.44,30.78l2.351,18.537c0,0,3.273,0.479,5.341,0.267c3.828,4.164,9.453,14.659,9.012,21.244
							c-8.251,3.153-15.82,6.053-21.635,6.497c-7.428,0.566-11.638-1.318-14.014-11.714
							C167.594,175.335,165.62,162.78,164.655,156.849z"/>
						<path style="opacity:0.2;" d="M164.655,156.849c-2.289-14.061-1.614-25.894,14.203-30.683
							c6.759,5.302,9.227,14.892,11.44,30.78l2.351,18.537c0,0,3.273,0.479,5.341,0.267c3.828,4.164,9.453,14.659,9.012,21.244
							c-8.251,3.153-15.82,6.053-21.635,6.497c-7.428,0.566-11.638-1.318-14.014-11.714
							C167.594,175.335,165.62,162.78,164.655,156.849z"/>
						<path style="opacity:0.2;" d="M179.947,182.006c1.813-3.253,9.238-4.657,14.839-3.707c1.053,0.178,3.411,0.478,6.135,1.369
							c-1.009-1.57-2.021-2.927-2.932-3.917c-2.068,0.211-5.341-0.267-5.341-0.267C182.192,176.285,179.947,182.006,179.947,182.006
							z"/>
					</g>
				</g>
				<path style="fill:#FFA8A7;" d="M209.888,180.38c5.835,1.818,25.659,10.779,46.268,11.397c2.61-2.697,3.93-8.349,3.538-12.45
					c-0.388-4.059-2.345-7.46-3.983-9.268c-1.1-0.278-1.863-0.412-2.615-0.455c-16.296,1.12-27.35-0.965-44.136-0.524
					c-6.88,0.181-16.564,4.412-16.564,4.412l0.252,1.99C192.649,175.483,204.053,178.562,209.888,180.38z"/>
			</g>
		</g>
	</g>
</g>
<g id="Speech_Bubble">
	<g id="Speech_Bubble_1_">
		<g id="Speech_Bubble_2_">
			<path style="fill:#FFFFFF;" d="M283.912,62.399c-7.421,4.282-12.501,11.074-14.82,18.691l-0.876,3.614
				c-1.342,7.317-0.206,15.131,3.797,22.068c8.951,15.513,28.854,20.852,44.367,11.902c6.937-4.002,11.832-10.199,14.332-17.205
				l1.051-3.566c1.804-7.755,0.807-16.178-3.475-23.599C319.335,58.784,299.431,53.445,283.912,62.399z"/>
			<path style="fill:#455A64;" d="M282.587,59.981c-15.115,8.685-21.349,26.946-15.484,42.776l-6.88,8.515
				c-1.175,1.454,0.054,3.593,1.902,3.31l10.82-1.656c10.723,13.041,29.641,16.852,44.756,8.166
				c16.848-9.681,22.679-31.266,12.998-48.113C321.019,56.132,299.435,50.3,282.587,59.981z M328.313,74.351
				c4.269,7.429,5.251,15.853,3.433,23.604l-1.057,3.565c-2.513,7.002-7.418,13.19-14.363,17.18
				c-15.529,8.923-35.423,3.548-44.346-11.98c-3.99-6.945-5.113-14.761-3.758-22.075l0.882-3.612
				c2.333-7.612,7.424-14.396,14.853-18.664C299.493,53.442,319.387,58.816,328.313,74.351z"/>
		</g>
		<g id="Check_1_">
			<path style="fill:#BA68C8;" d="M293.939,110.465c-1.405,0-2.753-0.581-3.718-1.612l-11.547-12.33
				c-1.923-2.053-1.817-5.277,0.236-7.201c2.055-1.924,5.278-1.816,7.201,0.236l7.499,8.008l17.743-22.474
				c1.741-2.209,4.944-2.587,7.155-0.842c2.209,1.744,2.586,4.947,0.842,7.155l-21.412,27.122c-0.919,1.165-2.301,1.87-3.783,1.933
				C294.082,110.463,294.01,110.465,293.939,110.465z"/>
		</g>
	</g>
</g>
</svg>
